<svg width="25" height="25" viewBox="0 0 25 25" fill="none" xmlns="http://www.w3.org/2000/svg">
<path fill-rule="evenodd" clip-rule="evenodd" d="M5.12142 6.98913C3.88979 8.5288 3.15332 10.4818 3.15332 12.6068C3.15332 17.5774 7.18276 21.6068 12.1533 21.6068C14.2783 21.6068 16.2313 20.8703 17.771 19.6387L16.9462 18.8139C16.5557 18.4234 16.5557 17.7902 16.9462 17.3997C17.3367 17.0092 17.9699 17.0092 18.3604 17.3997L19.1852 18.2245C20.4168 16.6848 21.1533 14.7318 21.1533 12.6068C21.1533 7.63625 17.1239 3.60681 12.1533 3.60681C10.0283 3.60681 8.07531 4.34328 6.53563 5.57491L7.36043 6.3997C7.75095 6.79023 7.75095 7.42339 7.36043 7.81392C6.9699 8.20444 6.33674 8.20444 5.94621 7.81392L5.12142 6.98913ZM1.15332 12.6068C1.15332 6.53168 6.07819 1.60681 12.1533 1.60681C18.2285 1.60681 23.1533 6.53168 23.1533 12.6068C23.1533 18.6819 18.2285 23.6068 12.1533 23.6068C6.07819 23.6068 1.15332 18.6819 1.15332 12.6068ZM9.15332 8.10681C9.5998 8.10681 9.99218 8.40279 10.1148 8.83209L11.6863 14.3321L11.6863 14.3321L12.1148 15.8321C12.2666 16.3631 11.9591 16.9166 11.428 17.0683C10.897 17.2201 10.3435 16.9126 10.1918 16.3815L9.97046 15.6068H8.33618L8.11485 16.3815C7.96313 16.9126 7.40965 17.2201 6.87861 17.0683C6.34758 16.9166 6.04008 16.3631 6.19179 15.8321L6.62034 14.3321L6.62035 14.3321L8.1918 8.83209C8.31446 8.40279 8.70684 8.10681 9.15332 8.10681ZM8.90761 13.6068H9.39904L9.15332 12.7468L8.90761 13.6068ZM12.6533 9.10681C12.6533 8.55453 13.101 8.10681 13.6533 8.10681C14.8889 8.10681 16.1355 8.3838 17.0954 9.1297C18.0954 9.90682 18.6533 11.0916 18.6533 12.6068C18.6533 14.1221 18.0954 15.3068 17.0954 16.0839C16.1355 16.8298 14.8889 17.1068 13.6533 17.1068C13.101 17.1068 12.6533 16.6591 12.6533 16.1068V9.10681ZM14.6533 10.1974V15.0163C15.1546 14.9176 15.5632 14.7416 15.8682 14.5047C16.3158 14.1568 16.6533 13.5916 16.6533 12.6068C16.6533 11.6221 16.3158 11.0568 15.8682 10.7089C15.5632 10.472 15.1546 10.296 14.6533 10.1974Z" fill="#8A8887"/>
</svg>
