<svg width="25" height="25" viewBox="0 0 25 25" fill="none" xmlns="http://www.w3.org/2000/svg">
<path fill-rule="evenodd" clip-rule="evenodd" d="M5.3558 7.13231C4.12417 8.67199 3.3877 10.625 3.3877 12.75C3.3877 17.7206 7.41713 21.75 12.3877 21.75C14.5127 21.75 16.4657 21.0135 18.0054 19.7819L17.1806 18.9571C16.7901 18.5666 16.7901 17.9334 17.1806 17.5429C17.5711 17.1524 18.2043 17.1524 18.5948 17.5429L19.4196 18.3677C20.6512 16.828 21.3877 14.875 21.3877 12.75C21.3877 7.77944 17.3583 3.75 12.3877 3.75C10.2627 3.75 8.30968 4.48647 6.77001 5.7181L7.5948 6.54289C7.98533 6.93342 7.98533 7.56658 7.5948 7.95711C7.20428 8.34763 6.57111 8.34763 6.18059 7.95711L5.3558 7.13231ZM1.3877 12.75C1.3877 6.67487 6.31256 1.75 12.3877 1.75C18.4628 1.75 23.3877 6.67487 23.3877 12.75C23.3877 18.8251 18.4628 23.75 12.3877 23.75C6.31256 23.75 1.3877 18.8251 1.3877 12.75ZM9.3877 8.25C9.83417 8.25 10.2266 8.54598 10.3492 8.97528L11.9207 14.4753L11.9207 14.4753L12.3492 15.9753C12.5009 16.5063 12.1934 17.0598 11.6624 17.2115C11.1314 17.3632 10.5779 17.0557 10.4262 16.5247L10.2048 15.75H8.57056L8.34922 16.5247C8.19751 17.0557 7.64402 17.3632 7.11299 17.2115C6.58195 17.0598 6.27445 16.5063 6.42617 15.9753L6.85472 14.4753L6.85472 14.4753L8.42617 8.97528C8.54883 8.54598 8.94122 8.25 9.3877 8.25ZM9.14198 13.75H9.63341L9.3877 12.89L9.14198 13.75ZM12.8877 9.25C12.8877 8.69772 13.3354 8.25 13.8877 8.25C15.1233 8.25 16.3699 8.52699 17.3297 9.27288C18.3298 10.05 18.8877 11.2347 18.8877 12.75C18.8877 14.2653 18.3298 15.45 17.3297 16.2271C16.3699 16.973 15.1233 17.25 13.8877 17.25C13.3354 17.25 12.8877 16.8023 12.8877 16.25V9.25ZM14.8877 10.3406V15.1594C15.389 15.0608 15.7976 14.8848 16.1025 14.6479C16.5502 14.3 16.8877 13.7347 16.8877 12.75C16.8877 11.7653 16.5502 11.2 16.1025 10.8521C15.7976 10.6152 15.389 10.4392 14.8877 10.3406Z" fill="white"/>
</svg>
