<svg width="25" height="25" viewBox="0 0 25 25" fill="none" xmlns="http://www.w3.org/2000/svg">
<circle cx="12.1533" cy="8.5238" r="4" stroke="#8A8887" stroke-width="2" stroke-linecap="round"/>
<path fill-rule="evenodd" clip-rule="evenodd" d="M13.4799 15.5997C13.0418 15.5493 12.5984 15.5238 12.1532 15.5238C10.2337 15.5238 8.34703 15.9976 6.78433 16.897C5.22221 17.796 4.03444 19.094 3.4841 20.6344C3.29829 21.1545 3.56928 21.7268 4.08937 21.9126C4.60946 22.0984 5.1817 21.8274 5.36751 21.3073C5.72878 20.2961 6.54973 19.3395 7.78192 18.6304C8.79592 18.0468 10.017 17.6741 11.3112 17.5606C11.6421 16.584 12.4622 15.833 13.4799 15.5997Z" fill="#8A8887"/>
<path fill-rule="evenodd" clip-rule="evenodd" d="M17.5888 13.4026L18.6758 13.4026C18.7087 13.4041 18.7375 13.4079 18.7781 13.4167C19.0754 13.4814 19.1884 13.5882 19.465 14.2419L19.5101 14.3497L19.684 14.7806L19.6983 14.7864L19.9223 14.685C20.4102 14.4669 20.6617 14.375 20.8308 14.3493L20.8658 14.3448L20.9296 14.3414C21.0819 14.3414 21.237 14.3953 21.3557 14.4892L21.4118 14.5394L22.1068 15.2315L22.1551 15.2825C22.3734 15.523 22.3938 15.6935 22.1523 16.3148L22.072 16.5152L21.8826 16.9633L21.8862 16.9721L22.32 17.1341L22.5292 17.2168C23.0694 17.4377 23.1804 17.5554 23.2527 17.8258C23.2672 17.8804 23.2724 17.9175 23.2741 17.9636L23.2748 18.0137V18.9907C23.2748 19.0602 23.2724 19.0994 23.2553 19.168C23.1834 19.4567 23.0767 19.5667 22.4275 19.8409L22.3204 19.8857L21.8925 20.0583L21.8895 20.0655L22.0443 20.4035C22.4289 21.2585 22.4424 21.4459 22.1895 21.7275L22.1579 21.7618L21.4445 22.4746C21.3169 22.6037 21.1349 22.6748 20.9589 22.6748C20.8093 22.6748 20.5745 22.6037 20.1743 22.4432L19.96 22.3554L19.7159 22.2522L19.7019 22.258L19.5758 22.5962C19.267 23.4098 19.1612 23.5419 18.844 23.6238C18.7971 23.6359 18.7636 23.641 18.7255 23.6431L18.6627 23.6444H17.6851C17.6241 23.6444 17.5897 23.6426 17.5291 23.6295C17.2319 23.565 17.1184 23.4581 16.8412 22.804L16.796 22.696L16.6219 22.265L16.6085 22.2595L16.2831 22.4058C15.7627 22.6348 15.5373 22.7046 15.3766 22.7046C15.2261 22.7046 15.0729 22.6517 14.951 22.5569L14.8928 22.5061L14.1989 21.813L14.1196 21.7266C13.9293 21.5026 13.9199 21.329 14.1535 20.7313L14.2753 20.4322L14.4239 20.0828L14.4208 20.0753L14.0843 19.95C13.4095 19.6939 13.2015 19.5759 13.1027 19.3606L13.0759 19.2928L13.0536 19.2178C13.041 19.1698 13.0356 19.1355 13.0334 19.0964L13.032 19.0319V18.0543C13.032 17.9843 13.0344 17.9447 13.0518 17.8755C13.1168 17.6173 13.2091 17.5027 13.6949 17.285L13.8963 17.198L14.4134 16.9889L14.4169 16.9803L14.2236 16.5537C13.9046 15.8291 13.8782 15.6085 14.0794 15.3621L14.107 15.3297L14.1722 15.2606L14.8635 14.5709C14.9901 14.4435 15.1713 14.3718 15.3476 14.3718C15.4737 14.3718 15.6589 14.4217 15.9553 14.5339L16.2535 14.6521L16.5915 14.7938L16.6054 14.788L16.7325 14.4475C17.0441 13.6281 17.1554 13.4911 17.4841 13.4175C17.5256 13.4082 17.5552 13.4042 17.5888 13.4026ZM18.4219 14.4256H17.8509L17.7704 14.6143C17.7398 14.6893 17.7053 14.777 17.6664 14.8787L17.4879 15.3561C17.4451 15.4691 17.364 15.5627 17.2597 15.6213L17.2057 15.6475L16.7862 15.8221C16.6803 15.8662 16.5633 15.8732 16.4539 15.8432L16.3893 15.8207L15.893 15.6115L15.625 15.5046L15.4448 15.4381L15.0401 15.8419L15.0877 15.9622C15.1063 16.0075 15.1277 16.0582 15.1522 16.1146L15.2347 16.3017L15.4415 16.754C15.4911 16.8617 15.5015 16.9825 15.4722 17.0959L15.4499 17.1629L15.2784 17.5798C15.2329 17.6901 15.1507 17.7806 15.0466 17.8363L14.9927 17.8613L14.4358 18.0852L14.1573 18.2045L14.0569 18.251V18.8298L14.1771 18.8819C14.2226 18.9009 14.2736 18.9217 14.3308 18.9443L14.5208 19.0181L14.9825 19.1895C15.0989 19.2315 15.1955 19.3139 15.2554 19.4206L15.2822 19.4759L15.4538 19.8915C15.4978 19.9982 15.5043 20.1161 15.4733 20.2259L15.4502 20.2907L15.2511 20.758L15.1262 21.0662L15.0654 21.2299L15.4701 21.6341L15.5906 21.5864C15.635 21.5684 15.6837 21.548 15.7367 21.5254L16.1085 21.3615L16.3765 21.2381C16.4887 21.1845 16.6159 21.1738 16.7343 21.2067L16.7928 21.2268L17.2147 21.401C17.3266 21.4472 17.4178 21.5312 17.4733 21.6373L17.4979 21.6922L17.6029 21.9572L17.7524 22.3206L17.8388 22.5191L17.8857 22.6198H18.4584L18.5402 22.427L18.6467 22.155L18.8202 21.69C18.863 21.5759 18.9447 21.4815 19.0499 21.4228L19.1043 21.3964L19.5245 21.223C19.6292 21.1798 19.7446 21.1728 19.8528 21.2018L19.9167 21.2236L20.3123 21.3914L20.6011 21.509L20.7591 21.57L20.8634 21.6077L21.2686 21.2033L21.1905 21.0106L21.0734 20.7435L20.8661 20.2916C20.8164 20.1837 20.806 20.0626 20.8354 19.9489L20.8578 19.8818L21.029 19.4668C21.0742 19.3573 21.1557 19.2674 21.2588 19.2116L21.3122 19.1866L21.7839 18.997L22.0247 18.8961L22.0909 18.8673L22.2512 18.794V18.2157L22.0905 18.1471L21.8729 18.061L21.3237 17.8566C21.2076 17.8143 21.1113 17.7318 21.0517 17.6251L21.025 17.5698L20.8538 17.1525C20.8101 17.046 20.8038 16.9286 20.8346 16.8191L20.8576 16.7545L21.0166 16.3827C21.058 16.2844 21.094 16.1972 21.1252 16.1202L21.1809 15.9793L21.2417 15.8146L20.8368 15.4113L20.7162 15.4591C20.6495 15.4862 20.5731 15.5185 20.4864 15.5562L20.3963 15.5957L19.9237 15.8101C19.8161 15.8593 19.6956 15.8696 19.5824 15.8404L19.5156 15.8182L19.0939 15.6448C18.9835 15.5995 18.893 15.5172 18.8372 15.4131L18.8123 15.3593L18.6632 14.9863L18.5551 14.7249L18.4953 14.5859L18.4219 14.4256ZM18.1538 16.4747C19.2836 16.4747 20.2021 17.393 20.2021 18.5228C20.2021 19.6527 19.2836 20.5718 18.1538 20.5718C17.0237 20.5718 16.105 19.6529 16.105 18.5228C16.105 17.3928 17.0236 16.4747 18.1538 16.4747ZM18.153 17.4978C17.5884 17.4978 17.1285 17.9575 17.1285 18.5217C17.1285 19.0861 17.5886 19.5464 18.153 19.5464C18.7169 19.5464 19.177 19.086 19.177 18.5217C19.177 17.9576 18.7172 17.4978 18.153 17.4978Z" fill="#8A8887"/>
</svg>
