<svg width="25" height="25" viewBox="0 0 25 25" fill="none" xmlns="http://www.w3.org/2000/svg">
<path d="M5.15332 17.6068H9.15332C10.8102 17.6068 12.1533 18.95 12.1533 20.6068V10.6068C12.1533 7.77838 12.1533 6.36417 11.2746 5.48549C10.396 4.60681 8.98175 4.60681 6.15332 4.60681H5.15332C4.21051 4.60681 3.73911 4.60681 3.44621 4.8997C3.15332 5.1926 3.15332 5.664 3.15332 6.60681V15.6068C3.15332 16.5496 3.15332 17.021 3.44621 17.3139C3.73911 17.6068 4.21051 17.6068 5.15332 17.6068Z" stroke="#8A8887" stroke-width="2"/>
<path d="M19.1533 17.6068H15.1533C13.4965 17.6068 12.1533 18.95 12.1533 20.6068V10.6068C12.1533 7.77838 12.1533 6.36417 13.032 5.48549C13.9107 4.60681 15.3249 4.60681 18.1533 4.60681H19.1533C20.0961 4.60681 20.5675 4.60681 20.8604 4.8997C21.1533 5.1926 21.1533 5.664 21.1533 6.60681V15.6068C21.1533 16.5496 21.1533 17.021 20.8604 17.3139C20.5675 17.6068 20.0961 17.6068 19.1533 17.6068Z" stroke="#8A8887" stroke-width="2"/>
</svg>
