<svg width="18" height="17" viewBox="0 0 18 17" fill="none" xmlns="http://www.w3.org/2000/svg">
<path fill-rule="evenodd" clip-rule="evenodd" d="M12.9023 0.00195312C13.3626 0.00195312 13.7357 0.375049 13.7357 0.835286V1.66862H14.569C15.9497 1.66862 17.069 2.78791 17.069 4.16862V14.1686C17.069 15.5493 15.9497 16.6686 14.569 16.6686H2.90234C1.52163 16.6686 0.402344 15.5493 0.402344 14.1686V4.16862C0.402344 2.78791 1.52163 1.66862 2.90234 1.66862H3.73568V0.835286C3.73568 0.375049 4.10877 0.00195312 4.56901 0.00195312C5.02925 0.00195312 5.40234 0.375049 5.40234 0.835286V1.66862H12.069V0.835286C12.069 0.375049 12.4421 0.00195312 12.9023 0.00195312ZM15.4023 8.33529H2.06901V14.1686C2.06901 14.6289 2.44211 15.002 2.90234 15.002H14.569C15.0292 15.002 15.4023 14.6289 15.4023 14.1686V8.33529ZM12.9023 10.002C13.3626 10.002 13.7357 10.375 13.7357 10.8353V12.502C13.7357 12.9622 13.3626 13.3353 12.9023 13.3353H11.2357C10.7754 13.3353 10.4023 12.9622 10.4023 12.502V10.8353C10.4023 10.375 10.7754 10.002 11.2357 10.002H12.9023ZM3.73568 3.33529H2.90234C2.44211 3.33529 2.06901 3.70838 2.06901 4.16862V6.66862H15.4023V4.16862C15.4023 3.70838 15.0292 3.33529 14.569 3.33529H13.7357V4.16862C13.7357 4.62886 13.3626 5.00195 12.9023 5.00195C12.4421 5.00195 12.069 4.62886 12.069 4.16862V3.33529H5.40234V4.16862C5.40234 4.62886 5.02925 5.00195 4.56901 5.00195C4.10877 5.00195 3.73568 4.62886 3.73568 4.16862V3.33529Z" fill="#808080"/>
</svg>
