<svg width="30" height="31" viewBox="0 0 30 31" fill="none" xmlns="http://www.w3.org/2000/svg">
<path d="M15 27.0654C17.6027 27.0654 20.125 26.163 22.1369 24.5118C24.1489 22.8606 25.5261 20.5629 26.0338 18.0102C26.5416 15.4575 26.1485 12.8076 24.9216 10.5122C23.6947 8.2168 21.7098 6.41781 19.3052 5.42179C16.9006 4.42576 14.225 4.29431 11.7343 5.04985C9.24363 5.80539 7.09198 7.40116 5.64597 9.56526C4.19996 11.7294 3.54906 14.3279 3.80417 16.9181C4.05928 19.5083 5.20463 21.93 7.04505 23.7704" stroke="#F23D4C" stroke-width="3" stroke-linecap="round"/>
<path d="M20 13.3154L15.152 19.133C14.4965 19.9197 14.1687 20.313 13.7281 20.333C13.2875 20.353 12.9255 19.9909 12.2014 19.2668L10 17.0654" stroke="#F23D4C" stroke-width="3" stroke-linecap="round"/>
</svg>
