<svg width="25" height="25" viewBox="0 0 25 25" fill="none" xmlns="http://www.w3.org/2000/svg">
<path fill-rule="evenodd" clip-rule="evenodd" d="M12.3877 3.75C9.62628 3.75 7.3877 5.98858 7.3877 8.75V16.75C7.3877 17.3023 6.93998 17.75 6.3877 17.75C3.62627 17.75 1.3877 15.5114 1.3877 12.75C1.3877 10.3103 3.13503 8.27872 5.44651 7.83845C5.89325 4.40314 8.83064 1.75 12.3877 1.75C15.9447 1.75 18.8821 4.40314 19.3289 7.83845C21.6404 8.27872 23.3877 10.3103 23.3877 12.75C23.3877 15.1897 21.6404 17.2213 19.3289 17.6616C18.8821 21.0969 15.9447 23.75 12.3877 23.75C11.8354 23.75 11.3877 23.3023 11.3877 22.75C11.3877 22.1977 11.8354 21.75 12.3877 21.75C15.1491 21.75 17.3877 19.5114 17.3877 16.75V8.75C17.3877 5.98858 15.1491 3.75 12.3877 3.75ZM19.3877 15.5793C20.5529 15.1675 21.3877 14.0562 21.3877 12.75C21.3877 11.4438 20.5529 10.3325 19.3877 9.9207V15.5793ZM5.3877 9.9207C4.2225 10.3325 3.3877 11.4438 3.3877 12.75C3.3877 14.0562 4.2225 15.1675 5.3877 15.5793V9.9207Z" fill="white"/>
</svg>
