<svg width="25" height="25" viewBox="0 0 25 25" fill="none" xmlns="http://www.w3.org/2000/svg">
<path fill-rule="evenodd" clip-rule="evenodd" d="M12.1533 3.60681C9.3919 3.60681 7.15332 5.84539 7.15332 8.60681V16.6068C7.15332 17.1591 6.70561 17.6068 6.15332 17.6068C3.3919 17.6068 1.15332 15.3682 1.15332 12.6068C1.15332 10.1671 2.90065 8.13554 5.21213 7.69526C5.65888 4.25995 8.59627 1.60681 12.1533 1.60681C15.7104 1.60681 18.6478 4.25995 19.0945 7.69526C21.406 8.13553 23.1533 10.1671 23.1533 12.6068C23.1533 15.0465 21.406 17.0781 19.0945 17.5184C18.6478 20.9537 15.7104 23.6068 12.1533 23.6068C11.601 23.6068 11.1533 23.1591 11.1533 22.6068C11.1533 22.0545 11.601 21.6068 12.1533 21.6068C14.9147 21.6068 17.1533 19.3682 17.1533 16.6068V8.60681C17.1533 5.84539 14.9147 3.60681 12.1533 3.60681ZM19.1533 15.4361C20.3185 15.0243 21.1533 13.913 21.1533 12.6068C21.1533 11.3006 20.3185 10.1893 19.1533 9.77751V15.4361ZM5.15332 9.77752C3.98813 10.1893 3.15332 11.3006 3.15332 12.6068C3.15332 13.913 3.98813 15.0243 5.15332 15.4361V9.77752Z" fill="#8A8887"/>
</svg>
