<svg width="17" height="21" viewBox="0 0 17 21" fill="none" xmlns="http://www.w3.org/2000/svg">
<path fill-rule="evenodd" clip-rule="evenodd" d="M13.1533 6.33594C13.7056 6.33594 14.1533 6.78365 14.1533 7.33594V17.3359C14.1533 18.9928 12.8102 20.3359 11.1533 20.3359H5.15332C3.49647 20.3359 2.15332 18.9928 2.15332 17.3359V7.33594C2.15332 6.78365 2.60104 6.33594 3.15332 6.33594H13.1533ZM12.1533 8.33594H4.15332V17.3359C4.15332 17.8882 4.60104 18.3359 5.15332 18.3359H11.1533C11.7056 18.3359 12.1533 17.8882 12.1533 17.3359V8.33594ZM5.15332 1.33594C5.15332 0.783653 5.60104 0.335938 6.15332 0.335938H10.1533C10.7056 0.335938 11.1533 0.783653 11.1533 1.33594V2.33594H15.1533C15.7056 2.33594 16.1533 2.78365 16.1533 3.33594C16.1533 3.88822 15.7056 4.33594 15.1533 4.33594H1.15332C0.601036 4.33594 0.15332 3.88822 0.15332 3.33594C0.15332 2.78365 0.601036 2.33594 1.15332 2.33594H5.15332V1.33594Z" fill="#F23D4C"/>
</svg>
