<svg width="25" height="25" viewBox="0 0 25 25" fill="none" xmlns="http://www.w3.org/2000/svg">
<path fill-rule="evenodd" clip-rule="evenodd" d="M21.1533 20.3359C21.7056 20.3359 22.1533 20.7837 22.1533 21.3359C22.1533 21.8882 21.7056 22.3359 21.1533 22.3359H3.15332C2.60104 22.3359 2.15332 21.8882 2.15332 21.3359C2.15332 20.7837 2.60104 20.3359 3.15332 20.3359H21.1533ZM6.44621 13.6288L17.4462 2.62883C17.8067 2.26835 18.3739 2.24062 18.7662 2.54564L18.8604 2.62883L21.8604 5.62883C22.2209 5.98931 22.2486 6.55655 21.9436 6.94884L21.8604 7.04304L10.8604 18.043C10.7041 18.1993 10.5015 18.2985 10.2848 18.3273L10.1533 18.3359H7.15332C6.64048 18.3359 6.21781 17.9499 6.16005 17.4526L6.15332 17.3359V14.3359C6.15332 14.1149 6.22648 13.9015 6.3594 13.7279L6.44621 13.6288L17.4462 2.62883L6.44621 13.6288ZM18.1533 4.75015L8.15332 14.7502V16.3359H9.73911L19.7391 6.33594L18.1533 4.75015Z" fill="#F23D4C"/>
</svg>
