<svg width="25" height="24" viewBox="0 0 25 24" fill="none" xmlns="http://www.w3.org/2000/svg">
<path d="M13.2506 7.14147L6.04297 14.0488C6.02987 14.0613 6.01665 14.0739 6.00335 14.0866C5.84045 14.2421 5.66527 14.4093 5.54042 14.6219C5.41558 14.8346 5.35492 15.069 5.29852 15.287C5.29392 15.3048 5.28934 15.3225 5.28476 15.3401L4.63805 17.8191C4.63532 17.8296 4.63254 17.8402 4.62971 17.851C4.59033 18.0015 4.54206 18.1859 4.52478 18.3457C4.50526 18.5262 4.50002 18.8828 4.78629 19.1749C5.07256 19.467 5.42918 19.4689 5.61007 19.453C5.77019 19.4389 5.95554 19.3943 6.10676 19.358C6.11763 19.3553 6.12832 19.3528 6.13881 19.3503L8.80131 18.7124C8.8182 18.7083 8.83522 18.7043 8.85235 18.7002C9.06225 18.6504 9.28791 18.5968 9.49539 18.4835C9.70287 18.3703 9.87002 18.2094 10.0255 18.0599C10.0382 18.0477 10.0508 18.0355 10.0633 18.0235L17.1655 11.2173L17.1987 11.1855C17.5239 10.8739 17.821 10.5892 18.0301 10.3258C18.2598 10.0364 18.458 9.68304 18.458 9.23181C18.458 8.78058 18.2598 8.42722 18.0301 8.13783C17.821 7.87442 17.5239 7.58978 17.1987 7.27816L17.1655 7.24634L17.0561 7.14147L17.0246 7.11136C16.7244 6.8236 16.4482 6.55881 16.1939 6.37233C15.9133 6.16656 15.5764 5.99188 15.1533 5.99188C14.7303 5.99188 14.3933 6.16656 14.1127 6.37233C13.8584 6.55881 13.5822 6.8236 13.282 7.11136C13.2716 7.12137 13.2611 7.13141 13.2506 7.14147Z" stroke="#8A8887" stroke-width="1.5"/>
<path d="M12.6533 7.79435L15.6533 5.87769L18.6533 8.75269L16.6533 11.6277L12.6533 7.79435Z" fill="#8A8887"/>
</svg>
