<svg width="88" height="35" viewBox="0 0 88 35" fill="none" xmlns="http://www.w3.org/2000/svg">
<path d="M86.5766 28.9214C86.5766 28.9266 86.5638 29.125 86.0402 29.4759C85.5514 29.8036 84.7805 30.1495 83.7142 30.4953C81.5923 31.1834 78.4814 31.8144 74.589 32.3483C66.8157 33.4145 56.0523 34.0766 44.1467 34.0766C32.241 34.0766 21.4776 33.4145 13.7043 32.3483C9.81191 31.8144 6.70098 31.1834 4.57906 30.4953C3.5128 30.1495 2.74196 29.8036 2.25307 29.4759C1.72955 29.125 1.71671 28.9266 1.71671 28.9214C1.71671 28.9162 1.72955 28.7178 2.25307 28.3669C2.74196 28.0392 3.5128 27.6933 4.57906 27.3475C6.70098 26.6594 9.81191 26.0284 13.7043 25.4945C21.4776 24.4283 32.241 23.7661 44.1467 23.7661C56.0523 23.7661 66.8157 24.4283 74.589 25.4945C78.4814 26.0284 81.5923 26.6594 83.7142 27.3475C84.7805 27.6933 85.5514 28.0392 86.0402 28.3669C86.5638 28.7178 86.5766 28.9162 86.5766 28.9214Z" stroke="url(#paint0_linear_3558_9652)" stroke-width="1.54011"/>
<path d="M12.0354 30.1906L18.5038 0.987305H21.045L66.0932 30.1906H12.0354Z" fill="#F23D4C" fill-opacity="0.2"/>
<path d="M75.3338 30.1906L68.8654 0.987305H66.3242L26.3584 30.1906H75.3338Z" fill="#F23D4C" fill-opacity="0.2"/>
<path d="M70.2264 29.9493V14.3838H81.6612V17.0957H73.8107V20.8044H81.0672V23.5163H73.8107V27.2251H81.6814V29.937H70.2196V29.9493H70.2264Z" fill="#F23D4C"/>
<path d="M63.7327 19.4181C63.6112 19.0528 63.4559 18.7184 63.2467 18.4398C63.0374 18.1488 62.7741 17.9073 62.4704 17.7092C62.1666 17.5111 61.8291 17.3563 61.4444 17.2449C61.0664 17.1334 60.6478 17.0901 60.1753 17.0901C59.3046 17.0901 58.5553 17.2882 57.887 17.6783C57.2322 18.0807 56.726 18.6441 56.3615 19.3995C55.997 20.1425 55.8147 21.065 55.8147 22.1548C55.8147 23.2445 55.997 24.167 56.348 24.9224C56.7125 25.6777 57.2187 26.2659 57.8735 26.6684C58.5283 27.0708 59.3045 27.2566 60.2023 27.2566C61.0123 27.2566 61.7076 27.1204 62.2881 26.8541C62.8687 26.5879 63.3074 26.2102 63.6112 25.7211C63.9284 25.232 64.0702 24.6561 64.0702 23.9998L64.7992 24.0989H60.4251V21.6223H67.5263V23.5788C67.5263 24.9471 67.209 26.1235 66.5813 27.1018C65.9535 28.0801 65.0827 28.8354 63.9757 29.3679C62.8754 29.888 61.5996 30.1542 60.1821 30.1542C58.5958 30.1542 57.1917 29.8323 55.9902 29.1883C54.7887 28.5444 53.8436 27.6219 53.1686 26.4331C52.5004 25.2319 52.1628 23.8203 52.1628 22.1795C52.1628 20.9103 52.3586 19.7896 52.7569 18.7989C53.1551 17.8083 53.7289 16.9662 54.4512 16.279C55.1802 15.5917 56.0172 15.0654 56.9825 14.7001C57.941 14.3472 58.9805 14.1553 60.1078 14.1553C61.0663 14.1553 61.9574 14.2915 62.7944 14.5453C63.6179 14.7992 64.3537 15.1583 65.0017 15.6227C65.643 16.087 66.1763 16.6443 66.588 17.2882C66.9998 17.9197 67.2563 18.6318 67.3778 19.3995H63.7327L63.7462 19.4243L63.7327 19.4181Z" fill="#F23D4C"/>
<path d="M38.7569 29.9493H34.9161L40.7685 14.3838H45.3991L51.2516 29.9493H47.4107L43.1581 17.9501H43.0231L38.7569 29.9493ZM38.5139 23.8259H47.5997V26.3954H38.5139V23.8259Z" fill="#F23D4C"/>
<path d="M21.679 17.1084V14.3965H35.6114V17.1084H30.4137V29.9497H26.8631V17.1084H21.6655H21.679Z" fill="#F23D4C"/>
<path d="M16.2383 18.8601C16.1776 18.2472 15.8873 17.7704 15.3878 17.4299C14.8883 17.0832 14.1998 16.916 13.3425 16.916C12.762 16.916 12.2624 16.9965 11.8642 17.1513C11.4659 17.2937 11.1487 17.5042 10.9327 17.7642C10.7234 18.0305 10.6154 18.3339 10.6154 18.662C10.6154 18.9406 10.6626 19.1821 10.8112 19.3926C10.9597 19.6031 11.1487 19.7827 11.4052 19.9375C11.6617 20.0799 11.9384 20.2161 12.2624 20.3275C12.5865 20.439 12.9375 20.5257 13.302 20.6062L14.8275 20.9405C15.5633 21.0953 16.2451 21.2934 16.8593 21.5535C17.4736 21.8135 18.0069 22.1231 18.4726 22.4884C18.9181 22.8537 19.2691 23.2871 19.5257 23.801C19.7822 24.3025 19.9104 24.8783 19.9104 25.5223C19.9104 26.4757 19.6472 27.2992 19.1139 27.9989C18.5941 28.6861 17.8449 29.231 16.8593 29.6211C15.8806 29.9987 14.706 30.1907 13.3222 30.1907C11.9384 30.1907 10.7572 29.9987 9.75137 29.6149C8.74559 29.2248 7.94907 28.6614 7.3753 27.906C6.80829 27.1506 6.51803 26.2033 6.49103 25.0826H9.96738C10.0011 25.6027 10.1766 26.0361 10.4534 26.3953C10.7437 26.742 11.1284 26.9958 11.6144 27.1754C12.1139 27.3549 12.654 27.4292 13.275 27.4292C13.896 27.4292 14.4158 27.3488 14.8613 27.1878C15.3068 27.0206 15.6578 26.7977 15.9143 26.5129C16.1708 26.2219 16.2923 25.8937 16.2923 25.5161C16.2923 25.1693 16.1843 24.8721 15.9548 24.6369C15.7388 24.4016 15.408 24.1911 14.976 24.0239C14.5508 23.8567 14.031 23.7019 13.4167 23.5657L11.5604 23.1447C10.1294 22.8227 9.0021 22.3212 8.17183 21.6463C7.3483 20.9715 6.93654 20.0551 6.93654 18.9035C6.93654 17.9562 7.1998 17.1389 7.76007 16.4393C8.32033 15.7396 9.0831 15.1824 10.0484 14.7923C11.0204 14.3898 12.1207 14.2041 13.3695 14.2041C14.6183 14.2041 15.732 14.4022 16.6636 14.7923C17.6086 15.1947 18.3444 15.7396 18.8709 16.4393C19.3907 17.1389 19.6674 17.9624 19.6809 18.8849H16.2383V18.8601Z" fill="#F23D4C"/>
<path d="M81.5667 0.744141V12.31H79.2649L73.777 5.03488H73.6825V12.31H71.0162V0.744141H73.3517L78.7924 8.01302H78.9004V0.744141H81.5667Z" fill="#F23D4C"/>
<path d="M60.4116 12.2973V0.731445H68.9033V2.7437H63.0779V5.49894H68.4713V7.51119H63.0779V10.2664H68.9303V12.2787H60.4116V12.3034V12.2973Z" fill="#F23D4C"/>
<path d="M47.4782 12.2973V0.731445H50.1445V5.49894H55.5582V0.731445H58.211V12.2973H55.5582V7.51738H50.1445V12.2973H47.4782Z" fill="#F23D4C"/>
<path d="M45.5747 4.78709H42.8746C42.8273 4.46513 42.7328 4.18651 42.5708 3.93266C42.4156 3.6788 42.2198 3.46829 41.9903 3.28873C41.7473 3.10918 41.4841 2.97916 41.1668 2.88009C40.863 2.79341 40.5255 2.73769 40.161 2.73769C39.5062 2.73769 38.9392 2.88009 38.4532 3.18348C37.9672 3.47448 37.5959 3.90789 37.3259 4.47132C37.0627 5.02856 36.9277 5.71582 36.9277 6.51453C36.9277 7.31324 37.0627 8.03765 37.3259 8.59489C37.5959 9.15213 37.9807 9.58554 38.4532 9.86416C38.9392 10.1552 39.4927 10.2976 40.134 10.2976C40.485 10.2976 40.8225 10.2542 41.1263 10.1614C41.4301 10.0747 41.7068 9.95084 41.9498 9.78367C42.1928 9.6165 42.3886 9.40598 42.5438 9.1707C42.6991 8.92923 42.8138 8.65681 42.8746 8.34723H45.5747C45.5004 8.89208 45.3317 9.39979 45.0549 9.88892C44.7781 10.3781 44.4136 10.8115 43.9411 11.2015C43.4821 11.5916 42.9218 11.8888 42.2806 12.1117C41.6393 12.3346 40.9103 12.446 40.1138 12.446C38.9865 12.446 37.9807 12.2108 37.0964 11.7464C36.2121 11.282 35.5236 10.601 35.0039 9.72175C34.4976 8.83017 34.2411 7.76522 34.2411 6.50834C34.2411 5.25145 34.4976 4.17412 35.0174 3.28873C35.5371 2.39715 36.2392 1.73466 37.1234 1.2641C38.0077 0.799732 39 0.564453 40.1138 0.564453C40.8428 0.564453 41.5178 0.651135 42.1456 0.843073C42.7733 1.03501 43.3336 1.30744 43.8196 1.66655C44.3056 2.01947 44.6904 2.46526 45.0077 2.97916C45.3114 3.49925 45.5139 4.08744 45.6017 4.76851L45.5747 4.79328V4.78709Z" fill="#F23D4C"/>
<path d="M22.975 2.74956V0.737305H33.3298V2.74956H29.4687V12.2907H26.8429V2.74956H22.9818H22.975Z" fill="#F23D4C"/>
<path d="M21.2537 0.744141V12.31H18.5874V0.744141H21.2537Z" fill="#F23D4C"/>
<path d="M6.6463 12.2973V0.731445H9.31263V5.83328H9.48138L14.0108 0.731445H17.2104L12.5325 5.90758L17.2711 12.2973H14.085L10.6357 7.54215L9.32613 9.00954V12.2973H6.6463Z" fill="#F23D4C"/>
<defs>
<linearGradient id="paint0_linear_3558_9652" x1="46.2829" y1="34.8467" x2="46.245" y2="25.9587" gradientUnits="userSpaceOnUse">
<stop stop-color="#F23D4C"/>
<stop offset="1" stop-color="#F23D4C" stop-opacity="0"/>
</linearGradient>
</defs>
</svg>
