<svg width="49" height="49" viewBox="0 0 49 49" fill="none" xmlns="http://www.w3.org/2000/svg">
<path d="M13.9233 22.662L22.662 3C24.4002 3 26.0673 3.69051 27.2964 4.91962C28.5255 6.14873 29.216 7.81577 29.216 9.554V18.2927H41.5812C42.2145 18.2855 42.8419 18.4161 43.4197 18.6754C43.9976 18.9348 44.5122 19.3167 44.9278 19.7946C45.3434 20.2726 45.6501 20.8352 45.8267 21.4435C46.0033 22.0518 46.0456 22.6912 45.9505 23.3174L42.9357 42.9794C42.7777 44.0213 42.2485 44.9709 41.4455 45.6534C40.6426 46.3359 39.6201 46.7052 38.5664 46.6933H13.9233M13.9233 22.662V46.6933M13.9233 22.662H7.36933C6.21051 22.662 5.09916 23.1223 4.27975 23.9417C3.46034 24.7611 3 25.8725 3 27.0313V42.324C3 43.4828 3.46034 44.5942 4.27975 45.4136C5.09916 46.233 6.21051 46.6933 7.36933 46.6933H13.9233" stroke="#F23D4C" stroke-width="4.36933" stroke-linecap="round" stroke-linejoin="round"/>
</svg>
