<svg width="80" height="81" viewBox="0 0 80 81" fill="none" xmlns="http://www.w3.org/2000/svg">
<rect y="0.81543" width="80" height="80" rx="40" fill="url(#paint0_linear_1369_9413)"/>
<path fill-rule="evenodd" clip-rule="evenodd" d="M41.2097 33.2025L41.2929 33.1083C41.6534 32.7478 42.2206 32.7201 42.6129 33.0251L42.7071 33.1083L49.7071 40.1083L49.7485 40.1523L49.8037 40.2201L49.8753 40.3314L49.9288 40.4441L49.9642 40.5494L49.9931 40.6973L50 40.8154L49.9972 40.8907L49.9798 41.0162L49.9503 41.1276L49.9063 41.2387L49.854 41.3361L49.7803 41.4409L49.7071 41.5225L42.7071 48.5225C42.3166 48.9131 41.6834 48.9131 41.2929 48.5225C40.9324 48.1621 40.9047 47.5948 41.2097 47.2025L41.2929 47.1083L46.584 41.8154H31C30.4477 41.8154 30 41.3677 30 40.8154C30 40.2631 30.4477 39.8154 31 39.8154H46.586L41.2929 34.5225C40.9324 34.1621 40.9047 33.5948 41.2097 33.2025L41.2929 33.1083L41.2097 33.2025Z" fill="white"/>
<defs>
<linearGradient id="paint0_linear_1369_9413" x1="-12.6258" y1="-37.0441" x2="67.275" y2="80.8154" gradientUnits="userSpaceOnUse">
<stop offset="0.344091" stop-color="#F9979F"/>
<stop offset="1" stop-color="#F23D4C"/>
</linearGradient>
</defs>
</svg>
