<svg width="128" height="131" viewBox="0 0 128 131" fill="none" xmlns="http://www.w3.org/2000/svg">
<path d="M12.5435 120V14.4452L126.386 68.1306L12.5435 120Z" fill="#44A3FF" stroke="#44A3FF" stroke-width="1.42116" stroke-miterlimit="10" stroke-linecap="round" stroke-linejoin="round"/>
<path d="M55.0153 25.4454C54.412 23.7694 53.6441 22.1239 52.6934 20.5394C44.7951 7.35724 27.7064 3.07289 14.5304 10.9651C1.34823 18.8634 -2.93612 35.946 4.9561 49.1281C6.17498 51.1575 7.60716 52.9798 9.20998 54.5765C17.5471 62.8648 30.4611 65.1319 41.2725 59.7079L41.175 59.5434L44.7829 57.386L44.8743 57.5444C55.1738 50.286 59.19 37.0612 55.0153 25.4454ZM41.1628 52.2911L41.0897 52.1692L38.3167 53.8269L38.3899 53.9488C30.0832 58.1173 20.1555 56.3743 13.7503 50.0057C13.0312 49.2927 12.3608 48.5187 11.7391 47.6898C11.5137 47.3973 11.3004 47.0987 11.0992 46.7879C11.0871 46.7757 11.081 46.7635 11.0688 46.7513C10.8677 46.4466 10.6665 46.1358 10.4776 45.8189C4.40761 35.69 7.70467 22.5566 17.8335 16.4866C21.2768 14.4267 25.0676 13.4455 28.8034 13.4455C29.1081 13.4455 29.4128 13.4516 29.7176 13.4699C29.7663 13.4699 29.8151 13.4699 29.8577 13.476C30.1198 13.4821 30.3819 13.5004 30.6378 13.5247C30.7231 13.5369 30.8085 13.543 30.8877 13.5491C31.1619 13.5735 31.4301 13.604 31.6982 13.6405C31.7653 13.6527 31.8323 13.6649 31.8994 13.671C32.1919 13.7137 32.4783 13.7624 32.7708 13.8173C33.0938 13.8782 33.4229 13.9453 33.7459 14.0245C34.069 14.0976 34.392 14.1829 34.7089 14.2804C35.0136 14.3597 35.3122 14.4511 35.6108 14.5608C35.6596 14.573 35.7022 14.5913 35.7449 14.6035C36.0313 14.6949 36.3178 14.7985 36.5981 14.9143C40.8642 16.5719 44.6305 19.613 47.1658 23.8425C47.8971 25.0614 48.4882 26.329 48.9514 27.621C52.1632 36.5432 49.0794 46.7086 41.1628 52.2911Z" fill="white" stroke="#F23D4C" stroke-width="1.42116" stroke-miterlimit="10" stroke-linecap="round"/>
<mask id="path-3-inside-1_1371_6094" fill="white">
<path d="M49.4945 77.6621L48.7103 76.3359L56.1507 72.0716L68.5414 93.5553L61.1048 97.2736"/>
</mask>
<path d="M49.4945 77.6621L48.7103 76.3359L56.1507 72.0716L68.5414 93.5553L61.1048 97.2736" fill="white"/>
<path d="M48.7103 76.3359L48.0886 75.2511L46.9891 75.8813L47.6341 76.9722L48.7103 76.3359ZM56.1507 72.0716L57.2338 71.4469L56.6108 70.3668L55.529 70.9868L56.1507 72.0716ZM68.5414 93.5553L69.1006 94.6736L70.2875 94.0801L69.6245 92.9306L68.5414 93.5553ZM50.5707 77.0258L49.7866 75.6995L47.6341 76.9722L48.4182 78.2985L50.5707 77.0258ZM49.332 77.4206L56.7724 73.1563L55.529 70.9868L48.0886 75.2511L49.332 77.4206ZM55.0677 72.6962L67.4584 94.1799L69.6245 92.9306L57.2338 71.4469L55.0677 72.6962ZM67.9823 92.437L60.5456 96.1553L61.6639 98.3919L69.1006 94.6736L67.9823 92.437Z" fill="#F23D4C" mask="url(#path-3-inside-1_1371_6094)"/>
<path d="M48.9516 27.6213C48.4884 26.3293 47.8972 25.0616 47.1659 23.8428C46.1055 22.0693 44.8135 20.5213 43.3752 19.1806C43.3752 19.1806 43.3874 19.1806 43.3935 19.1806C43.2107 19.0099 43.0278 18.8515 42.845 18.693C42.6256 18.498 42.4001 18.3152 42.1685 18.1323C41.9491 17.9556 41.7236 17.785 41.4981 17.6143C41.297 17.4681 41.0959 17.3218 40.8887 17.1816C40.5901 16.9744 40.2793 16.7794 39.9745 16.5905C39.8039 16.4869 39.6333 16.3833 39.4626 16.2857C39.097 16.0724 38.7191 15.8713 38.3413 15.6824C38.2072 15.6154 38.067 15.5544 37.9329 15.4874C37.5002 15.2802 37.0553 15.0851 36.6104 14.9084C36.3301 14.7987 36.0437 14.6951 35.7572 14.5976C35.7146 14.5854 35.6719 14.5671 35.6232 14.5549C35.3245 14.4513 35.0259 14.3599 34.7212 14.2746C34.4043 14.1832 34.0813 14.0979 33.7583 14.0186C33.4353 13.9455 33.1062 13.8724 32.7832 13.8114C32.4906 13.7566 32.2042 13.7078 31.9117 13.6652C31.8446 13.6591 31.7776 13.6469 31.7106 13.6347C31.4424 13.6042 31.1743 13.5676 30.9 13.5433C30.8208 13.5372 30.7355 13.5311 30.6501 13.5189C30.3942 13.4945 30.1321 13.4823 29.8701 13.4701C29.8274 13.464 29.7786 13.464 29.7299 13.464C29.4252 13.4458 29.1205 13.4397 28.8157 13.4397C25.0799 13.4397 21.2892 14.4209 17.8459 16.4808C7.717 22.5508 4.41994 35.6841 10.4899 45.813C10.6789 46.1299 10.88 46.4468 11.0811 46.7454C11.0933 46.7576 11.0994 46.7698 11.1116 46.782C11.3127 47.0928 11.5321 47.3914 11.7515 47.684C12.0013 48.0131 12.2573 48.33 12.5255 48.6408C12.7144 48.8663 12.9094 49.0857 13.1105 49.299C13.1349 49.3234 13.1593 49.3538 13.1837 49.3782C13.3787 49.5854 13.5676 49.7987 13.7687 49.9998C20.1739 56.3685 30.1017 58.1115 38.4083 53.9429L38.3352 53.821L41.1081 52.1633L41.1812 52.2852C49.0978 46.7028 52.1816 36.5374 48.9698 27.6152L48.9516 27.6213Z" stroke="#44A3FF" stroke-width="1.42116" stroke-miterlimit="10" stroke-linecap="round"/>
<path d="M44.8744 57.5441C44.3076 57.9464 43.7225 58.3364 43.1192 58.696C42.5097 59.0616 41.8942 59.3907 41.2726 59.7015L50.146 74.5231L53.7478 72.3657L44.8744 57.5441Z" fill="white" stroke="#F23D4C" stroke-width="1.42116" stroke-miterlimit="10"/>
<path d="M70.6048 26.2316L69.4408 28.3463L60.6954 44.2465C57.6787 49.7315 59.6776 56.6242 65.1626 59.647L65.9304 60.0737L67.7649 61.0853L70.3672 62.5175C75.8521 65.5342 82.7448 63.5353 85.7676 58.0503L86.1638 57.3312L95.6771 40.0353L70.5987 26.2438L70.6048 26.2316Z" fill="white" stroke="#F23D4C" stroke-width="1.42116" stroke-miterlimit="10" stroke-linecap="round" stroke-linejoin="round"/>
<path d="M58.0446 74.2186L60.5372 78.3811L69.6056 62.0908L67.7712 61.0791L65.9368 60.0675L58.0446 74.2186Z" fill="white" stroke="#F23D4C" stroke-width="1.42116" stroke-miterlimit="10"/>
<path d="M65.9365 60.0675L67.7709 61.0791L65.9365 60.0675Z" fill="#44A3FF"/>
<path d="M48.9516 27.6213C48.4884 26.3293 47.8972 25.0616 47.1659 23.8428C46.1055 22.0693 44.8135 20.5213 43.3752 19.1806C43.3752 19.1806 43.3874 19.1806 43.3935 19.1806C43.2107 19.0099 43.0278 18.8515 42.845 18.693C42.6256 18.498 42.4001 18.3152 42.1685 18.1323C41.9491 17.9556 41.7236 17.785 41.4981 17.6143C41.297 17.4681 41.0959 17.3218 40.8887 17.1816C40.5901 16.9744 40.2793 16.7794 39.9745 16.5905C39.8039 16.4869 39.6333 16.3833 39.4626 16.2857C39.097 16.0724 38.7191 15.8713 38.3412 15.6824C38.2072 15.6154 38.067 15.5544 37.9329 15.4874C37.5002 15.2802 37.0553 15.0851 36.6104 14.9084C36.3301 14.7987 36.0437 14.6951 35.7572 14.5976C35.7146 14.5854 35.6719 14.5671 35.6232 14.5549C35.3245 14.4513 35.0259 14.3599 34.7212 14.2746C34.4043 14.1832 34.0813 14.0979 33.7583 14.0186C33.4353 13.9455 33.1062 13.8724 32.7832 13.8114C32.4906 13.7566 32.2042 13.7078 31.9117 13.6652C31.8446 13.6591 31.7776 13.6469 31.7106 13.6347C31.4424 13.6042 31.1743 13.5676 30.9 13.5433C30.8208 13.5372 30.7355 13.5311 30.6501 13.5189C30.3942 13.4945 30.1321 13.4823 29.8701 13.4701C29.8274 13.464 29.7786 13.464 29.7299 13.464C29.4252 13.4458 29.1205 13.4397 28.8157 13.4397C25.0799 13.4397 21.2892 14.4209 17.8459 16.4808C7.717 22.5508 4.41994 35.6841 10.4899 45.813C10.6789 46.1299 10.88 46.4468 11.0811 46.7454C11.0933 46.7576 11.0994 46.7698 11.1116 46.782C11.3127 47.0928 11.5321 47.3914 11.7515 47.684C12.0013 48.0131 12.2573 48.33 12.5255 48.6408C12.7144 48.8663 12.9094 49.0857 13.1105 49.299C13.1349 49.3234 13.1593 49.3538 13.1837 49.3782C13.3787 49.5854 13.5676 49.7987 13.7687 49.9998C20.1739 56.3685 30.1017 58.1115 38.4083 53.9429L39.2127 53.5468L40.7302 52.6021L41.1812 52.2852C49.0978 46.7028 52.1816 36.5374 48.9698 27.6152L48.9516 27.6213Z" fill="white" stroke="#F23D4C" stroke-width="1.42116" stroke-miterlimit="10" stroke-linecap="round"/>
<path d="M43.3933 19.1872C37.0369 17.1273 29.8516 17.7123 23.6658 21.4177C13.8905 27.2744 9.79504 38.9878 13.1652 49.3848C12.6655 48.8485 12.1901 48.2878 11.7391 47.6906C11.5198 47.398 11.3004 47.0994 11.0992 46.7886C11.0871 46.7764 11.081 46.7642 11.0688 46.752C10.8677 46.4534 10.6665 46.1365 10.4776 45.8196C4.40761 35.6907 7.70467 22.5574 17.8335 16.4874C21.2769 14.4275 25.0676 13.4463 28.8034 13.4463C29.1081 13.4463 29.4128 13.4524 29.7176 13.4706C29.7663 13.4706 29.8151 13.4706 29.8577 13.4767C30.1198 13.4889 30.3819 13.5011 30.6378 13.5255C30.7231 13.5377 30.8085 13.5438 30.8877 13.5499C31.1619 13.5742 31.4301 13.6108 31.6982 13.6413C31.7653 13.6535 31.8323 13.6657 31.8994 13.6718C32.1919 13.7144 32.4783 13.7632 32.7708 13.818C33.0939 13.879 33.4229 13.9521 33.7459 14.0252C34.069 14.1045 34.392 14.1898 34.7089 14.2812C35.0136 14.3665 35.3122 14.4579 35.6108 14.5615C35.6596 14.5737 35.7022 14.592 35.7449 14.6042C36.0313 14.7017 36.3178 14.8053 36.5981 14.915C39.0846 15.8901 41.3944 17.3223 43.3933 19.1872Z" fill="#F23D4C"/>
<path d="M87.1026 41.175L77.5892 58.4709" stroke="#F23D4C" stroke-width="1.42116" stroke-miterlimit="10" stroke-linecap="round"/>
<path d="M80.1249 37.8047L70.6116 55.1005" stroke="#F23D4C" stroke-width="1.42116" stroke-miterlimit="10" stroke-linecap="round"/>
<path d="M74.1156 33.959L64.6023 51.2548" stroke="#F23D4C" stroke-width="1.42116" stroke-miterlimit="10" stroke-linecap="round"/>
<path d="M53.0125 15.3673C51.8428 13.8394 50.3471 14.0575 49.4235 14.5127C49.1332 14.6558 49.0934 15.0304 49.3034 15.2767L52.212 18.6883C52.3914 18.8988 52.7012 18.9517 52.9052 18.7648C53.5825 18.1443 54.2053 16.9253 53.0125 15.3673Z" fill="#F23D4C"/>
<path d="M3.52398 52.7626C4.56274 54.3824 6.07143 54.2892 7.02958 53.9124C7.33085 53.7939 7.40162 53.4239 7.21277 53.161L4.59766 49.5196C4.4363 49.2949 4.13201 49.2164 3.91322 49.3857C3.18664 49.9478 2.46478 51.1109 3.52398 52.7626Z" fill="#F23D4C"/>
<path d="M20.5075 8.03364L18.8589 6.38498C17.67 5.19608 15.7893 5.05812 14.4397 6.0608L5.59014 12.6352C3.92898 13.8693 3.75135 16.2908 5.21465 17.7541L5.82289 18.3623" stroke="#F23D4C" stroke-width="1.13012"/>
<mask id="mask0_1371_6094" style="mask-type:alpha" maskUnits="userSpaceOnUse" x="13" y="63" width="45" height="56">
<path d="M13.4297 64.2703V118.376L57.2991 97.9042C52.181 70.1179 29.5152 62.0768 13.4297 64.2703Z" fill="#D9D9D9"/>
</mask>
<g mask="url(#mask0_1371_6094)">
<mask id="path-19-inside-2_1371_6094" fill="white">
<path d="M15.2056 122.399C14.3744 122.034 13.5412 121.673 12.7129 121.301C12.3118 121.122 11.9107 120.939 11.5261 120.728C11.1361 120.514 10.765 120.266 10.3867 120.03C9.89847 119.727 9.40254 119.435 8.92596 119.115C8.50697 118.833 8.09426 118.538 7.70671 118.216C6.89291 117.539 6.08104 116.858 5.3011 116.142C4.81872 115.7 4.38376 115.202 3.95073 114.709C3.42335 114.109 2.90759 113.497 2.41118 112.871C2.16007 112.554 1.96654 112.193 1.7372 111.859C1.64769 111.728 1.51415 111.627 1.429 111.494C0.814533 110.541 0.179747 109.601 -0.288118 108.56C-0.610349 107.844 -1.0037 107.157 -1.28916 106.428C-1.61188 105.602 -1.85476 104.745 -2.12184 103.898C-2.27328 103.417 -2.41746 102.933 -2.53842 102.445C-2.67292 101.902 -2.77695 101.352 -2.89403 100.805C-2.97048 100.446 -3.05757 100.09 -3.11853 99.7289C-3.14853 99.5528 -3.11321 99.3655 -3.1374 99.188C-3.31351 97.8899 -3.43012 96.5864 -3.37157 95.2772C-3.32319 94.1977 -3.23852 93.1188 -3.12772 92.0437C-3.05854 91.3722 -2.91822 90.7079 -2.7963 90.0426C-2.71018 89.5747 -2.61244 89.1083 -2.49826 88.6463C-2.41794 88.3206 -2.2994 88.0042 -2.2007 87.6829C-2.03475 87.143 -1.89395 86.5934 -1.69994 86.0636C-1.49624 85.5081 -1.24368 84.9701 -1.00951 84.4263C-0.816462 83.9787 -0.631154 83.5273 -0.41972 83.0885C-0.213608 82.6608 0.0113735 82.2413 0.245548 81.8281C0.537298 81.3133 0.826145 80.7946 1.15321 80.3021C1.64672 79.5589 2.15233 78.8216 2.69131 78.1113C3.09289 77.582 3.55544 77.0991 3.98992 76.5945C4.17329 76.3821 4.33537 76.1474 4.53858 75.9568C5.22369 75.3143 5.92331 74.6868 6.61712 74.0529C6.87065 73.8217 7.1116 73.5749 7.37867 73.3606C7.6651 73.1308 7.9733 72.9266 8.27666 72.718C8.9637 72.2458 9.64349 71.7615 10.346 71.3135C10.8971 70.9622 11.4699 70.6429 12.0486 70.3386C12.5218 70.0899 13.0143 69.8775 13.5045 69.6631C14.0004 69.4459 14.5002 69.2349 15.0058 69.0424C15.3909 68.8958 15.7877 68.7811 16.18 68.6539C16.7563 68.4671 17.3233 68.2416 17.9112 68.1042C18.8542 67.8841 19.8136 67.7341 20.7614 67.5323C21.7552 67.3204 22.7616 67.2701 23.7714 67.2474C24.6481 67.2275 25.5272 67.1671 26.401 67.2101C27.6222 67.2706 28.8453 67.349 30.0466 67.6199C30.74 67.7762 31.4425 67.8904 32.1392 68.0321C32.2786 68.0607 32.4092 68.1318 32.5461 68.1754C32.6589 68.2112 32.775 68.2373 32.8906 68.2615C32.9453 68.2726 33.0067 68.2566 33.058 68.2741C33.6551 68.4778 34.2507 68.6858 34.8463 68.8929C34.9019 68.9437 34.9493 69.0114 35.0146 69.0429C35.7592 69.3994 36.5237 69.7188 37.248 70.1116C38.1291 70.5892 39.0053 71.0866 39.8317 71.6507C40.7175 72.256 41.5662 72.9227 42.3892 73.6122C43.1024 74.2097 43.7846 74.8498 44.4295 75.5204C45.073 76.1891 45.6729 76.9022 46.2545 77.6255C46.7916 78.2937 47.2933 78.9924 47.782 79.6973C48.05 80.0844 48.259 80.5121 48.4956 80.9209C49.1149 81.9916 49.696 83.0832 50.1377 84.239C50.5417 85.2962 50.9249 86.3631 51.268 87.4415C51.4857 88.1271 51.6429 88.8359 51.7736 89.5442C51.9361 90.4248 52.0619 91.3136 52.1689 92.2029C52.2579 92.9422 52.3372 93.6863 52.3484 94.4295C52.3614 95.312 52.2956 96.1955 52.2656 97.0785C52.2289 98.1535 52.0871 99.2151 51.8853 100.271C51.6241 101.641 51.2839 102.987 50.8301 104.309C50.4648 105.372 50.0719 106.42 49.5678 107.424C49.1865 108.182 48.8154 108.95 48.3679 109.669C47.7587 110.648 47.0901 111.592 46.4311 112.54C45.7092 113.578 44.8296 114.484 43.9549 115.391C43.5542 115.806 43.1193 116.189 42.6843 116.569C42.1657 117.022 41.6489 117.48 41.0969 117.89C40.4302 118.385 39.7325 118.839 39.0391 119.297C38.6051 119.584 38.1716 119.88 37.7076 120.112C36.7167 120.607 35.7138 121.078 34.7016 121.528C33.5723 122.031 32.3952 122.398 31.1991 122.713C29.7868 123.086 28.3653 123.4 26.9071 123.517C25.9481 123.595 24.9877 123.686 24.0273 123.697C23.1627 123.707 22.2957 123.633 21.432 123.563C20.6981 123.505 19.9617 123.438 19.2379 123.309C17.9122 123.073 16.5903 122.809 15.3183 122.348C15.2908 122.338 15.2438 122.381 15.2061 122.399H15.2056ZM25.278 75.084C25.2775 75.0733 25.277 75.0632 25.2761 75.0525C24.3486 75.0956 23.4206 75.1266 22.494 75.1866C22.1046 75.2117 21.7156 75.2795 21.3333 75.3607C20.8722 75.459 20.4155 75.5809 19.9626 75.7125C19.2475 75.921 18.5194 76.101 17.8299 76.3763C16.9474 76.7285 16.0891 77.1466 15.2366 77.5689C14.6986 77.8355 14.1828 78.1505 13.6723 78.4679C13.4512 78.6053 13.2737 78.8119 13.0656 78.9735C12.6887 79.2667 12.2925 79.5357 11.9257 79.8405C11.5261 80.1724 11.1385 80.5208 10.7679 80.8846C10.3247 81.3191 9.89798 81.7705 9.4785 82.2282C9.30916 82.4131 9.20175 82.6559 9.0266 82.833C8.45036 83.4156 7.99894 84.0866 7.59107 84.7901C7.30465 85.2836 7.00951 85.7738 6.75453 86.2832C6.49326 86.8062 6.27505 87.351 6.03991 87.8871C5.94169 88.1107 5.84686 88.3352 5.75397 88.5611C5.7051 88.6796 5.65478 88.7987 5.62188 88.922C5.48592 89.4373 5.35481 89.9541 5.22417 90.4708C5.09112 90.9962 4.9571 91.5212 4.82888 92.0476C4.59035 93.0269 4.55552 94.0298 4.51342 95.0285C4.46649 96.1447 4.511 97.2614 4.65131 98.3722C4.68325 98.6262 4.66583 98.889 4.71905 99.1372C4.82501 99.6268 4.95855 100.111 5.0916 100.594C5.25659 101.195 5.41916 101.797 5.6093 102.39C5.72348 102.747 5.88412 103.09 6.03217 103.435C6.25715 103.96 6.4652 104.496 6.72502 105.004C7.02306 105.587 7.3598 106.151 7.69897 106.712C7.94959 107.127 8.21425 107.536 8.50455 107.923C8.78033 108.292 9.11514 108.616 9.39286 108.984C9.88298 109.631 10.4283 110.225 11.0364 110.759C11.5343 111.197 12.0438 111.622 12.5586 112.04C12.7734 112.215 13.0182 112.339 13.233 112.531C13.6288 112.884 14.103 113.157 14.5699 113.418C15.1374 113.736 15.7291 114.011 16.3146 114.296C16.659 114.464 17.0055 114.63 17.3616 114.772C17.8072 114.949 18.261 115.107 18.7158 115.261C19.1474 115.407 19.577 115.569 20.0197 115.667C20.7532 115.828 21.4935 115.965 22.2366 116.072C22.9609 116.177 23.6915 116.277 24.4216 116.294C25.279 116.314 26.1416 116.278 26.9966 116.2C27.8293 116.124 28.6619 116 29.4815 115.833C30.2078 115.685 30.9175 115.455 31.6312 115.251C31.9452 115.161 32.2602 115.065 32.5592 114.936C33.1451 114.684 33.7262 114.419 34.2986 114.137C34.8719 113.854 35.4501 113.574 35.992 113.238C36.7259 112.784 37.4468 112.306 38.0957 111.728C38.3647 111.488 38.6695 111.286 38.925 111.034C40.0107 109.958 41.1215 108.904 41.9712 107.615C42.2019 107.265 42.4221 106.906 42.6538 106.556C43.0099 106.018 43.2814 105.424 43.576 104.847C43.7971 104.414 44.0158 103.979 44.2026 103.532C44.3874 103.089 44.5345 102.629 44.6932 102.176C44.9999 101.298 45.2477 100.408 45.4093 99.487C45.5839 98.4917 45.762 97.4994 45.7741 96.4887C45.7837 95.6768 45.79 94.8601 45.7179 94.0526C45.642 93.2025 45.4847 92.3582 45.3367 91.5159C45.2443 90.9885 45.1257 90.4635 44.9786 89.9487C44.8451 89.4818 44.6646 89.0275 44.4924 88.5727C44.2892 88.0361 44.0995 87.4918 43.8537 86.9741C43.5717 86.3785 43.3293 85.7592 42.9209 85.228C42.6093 84.823 42.4666 84.3019 42.0582 83.9613C42.0355 83.942 42.0224 83.9086 42.0103 83.8796C41.8841 83.5762 41.7036 83.3106 41.467 83.0822C41.4152 83.0324 41.3736 82.9724 41.3267 82.9177C40.8283 82.3313 40.3416 81.7338 39.8258 81.1628C39.5801 80.8909 39.2844 80.6611 38.9999 80.4264C38.2848 79.8371 37.5872 79.2236 36.8367 78.6827C36.2528 78.2618 35.6025 77.9323 34.9774 77.5694C34.2705 77.1587 33.537 76.8064 32.774 76.506C31.9229 76.1712 31.0661 75.8644 30.1739 75.6626C29.7302 75.562 29.273 75.5141 28.838 75.3859C28.1229 75.1749 27.388 75.1474 26.6569 75.0898C26.2002 75.054 25.7381 75.083 25.2785 75.083L25.278 75.084Z"/>
</mask>
<path d="M15.2056 122.399C14.3744 122.034 13.5412 121.673 12.7129 121.301C12.3118 121.122 11.9107 120.939 11.5261 120.728C11.1361 120.514 10.765 120.266 10.3867 120.03C9.89847 119.727 9.40254 119.435 8.92596 119.115C8.50697 118.833 8.09426 118.538 7.70671 118.216C6.89291 117.539 6.08104 116.858 5.3011 116.142C4.81872 115.7 4.38376 115.202 3.95073 114.709C3.42335 114.109 2.90759 113.497 2.41118 112.871C2.16007 112.554 1.96654 112.193 1.7372 111.859C1.64769 111.728 1.51415 111.627 1.429 111.494C0.814533 110.541 0.179747 109.601 -0.288118 108.56C-0.610349 107.844 -1.0037 107.157 -1.28916 106.428C-1.61188 105.602 -1.85476 104.745 -2.12184 103.898C-2.27328 103.417 -2.41746 102.933 -2.53842 102.445C-2.67292 101.902 -2.77695 101.352 -2.89403 100.805C-2.97048 100.446 -3.05757 100.09 -3.11853 99.7289C-3.14853 99.5528 -3.11321 99.3655 -3.1374 99.188C-3.31351 97.8899 -3.43012 96.5864 -3.37157 95.2772C-3.32319 94.1977 -3.23852 93.1188 -3.12772 92.0437C-3.05854 91.3722 -2.91822 90.7079 -2.7963 90.0426C-2.71018 89.5747 -2.61244 89.1083 -2.49826 88.6463C-2.41794 88.3206 -2.2994 88.0042 -2.2007 87.6829C-2.03475 87.143 -1.89395 86.5934 -1.69994 86.0636C-1.49624 85.5081 -1.24368 84.9701 -1.00951 84.4263C-0.816462 83.9787 -0.631154 83.5273 -0.41972 83.0885C-0.213608 82.6608 0.0113735 82.2413 0.245548 81.8281C0.537298 81.3133 0.826145 80.7946 1.15321 80.3021C1.64672 79.5589 2.15233 78.8216 2.69131 78.1113C3.09289 77.582 3.55544 77.0991 3.98992 76.5945C4.17329 76.3821 4.33537 76.1474 4.53858 75.9568C5.22369 75.3143 5.92331 74.6868 6.61712 74.0529C6.87065 73.8217 7.1116 73.5749 7.37867 73.3606C7.6651 73.1308 7.9733 72.9266 8.27666 72.718C8.9637 72.2458 9.64349 71.7615 10.346 71.3135C10.8971 70.9622 11.4699 70.6429 12.0486 70.3386C12.5218 70.0899 13.0143 69.8775 13.5045 69.6631C14.0004 69.4459 14.5002 69.2349 15.0058 69.0424C15.3909 68.8958 15.7877 68.7811 16.18 68.6539C16.7563 68.4671 17.3233 68.2416 17.9112 68.1042C18.8542 67.8841 19.8136 67.7341 20.7614 67.5323C21.7552 67.3204 22.7616 67.2701 23.7714 67.2474C24.6481 67.2275 25.5272 67.1671 26.401 67.2101C27.6222 67.2706 28.8453 67.349 30.0466 67.6199C30.74 67.7762 31.4425 67.8904 32.1392 68.0321C32.2786 68.0607 32.4092 68.1318 32.5461 68.1754C32.6589 68.2112 32.775 68.2373 32.8906 68.2615C32.9453 68.2726 33.0067 68.2566 33.058 68.2741C33.6551 68.4778 34.2507 68.6858 34.8463 68.8929C34.9019 68.9437 34.9493 69.0114 35.0146 69.0429C35.7592 69.3994 36.5237 69.7188 37.248 70.1116C38.1291 70.5892 39.0053 71.0866 39.8317 71.6507C40.7175 72.256 41.5662 72.9227 42.3892 73.6122C43.1024 74.2097 43.7846 74.8498 44.4295 75.5204C45.073 76.1891 45.6729 76.9022 46.2545 77.6255C46.7916 78.2937 47.2933 78.9924 47.782 79.6973C48.05 80.0844 48.259 80.5121 48.4956 80.9209C49.1149 81.9916 49.696 83.0832 50.1377 84.239C50.5417 85.2962 50.9249 86.3631 51.268 87.4415C51.4857 88.1271 51.6429 88.8359 51.7736 89.5442C51.9361 90.4248 52.0619 91.3136 52.1689 92.2029C52.2579 92.9422 52.3372 93.6863 52.3484 94.4295C52.3614 95.312 52.2956 96.1955 52.2656 97.0785C52.2289 98.1535 52.0871 99.2151 51.8853 100.271C51.6241 101.641 51.2839 102.987 50.8301 104.309C50.4648 105.372 50.0719 106.42 49.5678 107.424C49.1865 108.182 48.8154 108.95 48.3679 109.669C47.7587 110.648 47.0901 111.592 46.4311 112.54C45.7092 113.578 44.8296 114.484 43.9549 115.391C43.5542 115.806 43.1193 116.189 42.6843 116.569C42.1657 117.022 41.6489 117.48 41.0969 117.89C40.4302 118.385 39.7325 118.839 39.0391 119.297C38.6051 119.584 38.1716 119.88 37.7076 120.112C36.7167 120.607 35.7138 121.078 34.7016 121.528C33.5723 122.031 32.3952 122.398 31.1991 122.713C29.7868 123.086 28.3653 123.4 26.9071 123.517C25.9481 123.595 24.9877 123.686 24.0273 123.697C23.1627 123.707 22.2957 123.633 21.432 123.563C20.6981 123.505 19.9617 123.438 19.2379 123.309C17.9122 123.073 16.5903 122.809 15.3183 122.348C15.2908 122.338 15.2438 122.381 15.2061 122.399H15.2056ZM25.278 75.084C25.2775 75.0733 25.277 75.0632 25.2761 75.0525C24.3486 75.0956 23.4206 75.1266 22.494 75.1866C22.1046 75.2117 21.7156 75.2795 21.3333 75.3607C20.8722 75.459 20.4155 75.5809 19.9626 75.7125C19.2475 75.921 18.5194 76.101 17.8299 76.3763C16.9474 76.7285 16.0891 77.1466 15.2366 77.5689C14.6986 77.8355 14.1828 78.1505 13.6723 78.4679C13.4512 78.6053 13.2737 78.8119 13.0656 78.9735C12.6887 79.2667 12.2925 79.5357 11.9257 79.8405C11.5261 80.1724 11.1385 80.5208 10.7679 80.8846C10.3247 81.3191 9.89798 81.7705 9.4785 82.2282C9.30916 82.4131 9.20175 82.6559 9.0266 82.833C8.45036 83.4156 7.99894 84.0866 7.59107 84.7901C7.30465 85.2836 7.00951 85.7738 6.75453 86.2832C6.49326 86.8062 6.27505 87.351 6.03991 87.8871C5.94169 88.1107 5.84686 88.3352 5.75397 88.5611C5.7051 88.6796 5.65478 88.7987 5.62188 88.922C5.48592 89.4373 5.35481 89.9541 5.22417 90.4708C5.09112 90.9962 4.9571 91.5212 4.82888 92.0476C4.59035 93.0269 4.55552 94.0298 4.51342 95.0285C4.46649 96.1447 4.511 97.2614 4.65131 98.3722C4.68325 98.6262 4.66583 98.889 4.71905 99.1372C4.82501 99.6268 4.95855 100.111 5.0916 100.594C5.25659 101.195 5.41916 101.797 5.6093 102.39C5.72348 102.747 5.88412 103.09 6.03217 103.435C6.25715 103.96 6.4652 104.496 6.72502 105.004C7.02306 105.587 7.3598 106.151 7.69897 106.712C7.94959 107.127 8.21425 107.536 8.50455 107.923C8.78033 108.292 9.11514 108.616 9.39286 108.984C9.88298 109.631 10.4283 110.225 11.0364 110.759C11.5343 111.197 12.0438 111.622 12.5586 112.04C12.7734 112.215 13.0182 112.339 13.233 112.531C13.6288 112.884 14.103 113.157 14.5699 113.418C15.1374 113.736 15.7291 114.011 16.3146 114.296C16.659 114.464 17.0055 114.63 17.3616 114.772C17.8072 114.949 18.261 115.107 18.7158 115.261C19.1474 115.407 19.577 115.569 20.0197 115.667C20.7532 115.828 21.4935 115.965 22.2366 116.072C22.9609 116.177 23.6915 116.277 24.4216 116.294C25.279 116.314 26.1416 116.278 26.9966 116.2C27.8293 116.124 28.6619 116 29.4815 115.833C30.2078 115.685 30.9175 115.455 31.6312 115.251C31.9452 115.161 32.2602 115.065 32.5592 114.936C33.1451 114.684 33.7262 114.419 34.2986 114.137C34.8719 113.854 35.4501 113.574 35.992 113.238C36.7259 112.784 37.4468 112.306 38.0957 111.728C38.3647 111.488 38.6695 111.286 38.925 111.034C40.0107 109.958 41.1215 108.904 41.9712 107.615C42.2019 107.265 42.4221 106.906 42.6538 106.556C43.0099 106.018 43.2814 105.424 43.576 104.847C43.7971 104.414 44.0158 103.979 44.2026 103.532C44.3874 103.089 44.5345 102.629 44.6932 102.176C44.9999 101.298 45.2477 100.408 45.4093 99.487C45.5839 98.4917 45.762 97.4994 45.7741 96.4887C45.7837 95.6768 45.79 94.8601 45.7179 94.0526C45.642 93.2025 45.4847 92.3582 45.3367 91.5159C45.2443 90.9885 45.1257 90.4635 44.9786 89.9487C44.8451 89.4818 44.6646 89.0275 44.4924 88.5727C44.2892 88.0361 44.0995 87.4918 43.8537 86.9741C43.5717 86.3785 43.3293 85.7592 42.9209 85.228C42.6093 84.823 42.4666 84.3019 42.0582 83.9613C42.0355 83.942 42.0224 83.9086 42.0103 83.8796C41.8841 83.5762 41.7036 83.3106 41.467 83.0822C41.4152 83.0324 41.3736 82.9724 41.3267 82.9177C40.8283 82.3313 40.3416 81.7338 39.8258 81.1628C39.5801 80.8909 39.2844 80.6611 38.9999 80.4264C38.2848 79.8371 37.5872 79.2236 36.8367 78.6827C36.2528 78.2618 35.6025 77.9323 34.9774 77.5694C34.2705 77.1587 33.537 76.8064 32.774 76.506C31.9229 76.1712 31.0661 75.8644 30.1739 75.6626C29.7302 75.562 29.273 75.5141 28.838 75.3859C28.1229 75.1749 27.388 75.1474 26.6569 75.0898C26.2002 75.054 25.7381 75.083 25.2785 75.083L25.278 75.084Z" fill="white" stroke="#F23D4C" stroke-width="2" mask="url(#path-19-inside-2_1371_6094)"/>
<path d="M15.2054 122.4C15.2432 122.381 15.2901 122.339 15.3177 122.349C16.5902 122.809 17.912 123.074 19.2372 123.31C19.961 123.438 20.6979 123.505 21.4314 123.564C22.295 123.632 23.162 123.707 24.0267 123.697C24.9871 123.687 25.948 123.595 26.9064 123.518C28.3642 123.4 29.7857 123.086 31.1985 122.714C32.3945 122.398 33.5712 122.031 34.7009 121.529C35.7126 121.079 36.7161 120.607 37.707 120.113C38.171 119.881 38.6045 119.585 39.0385 119.298C39.7318 118.84 40.4295 118.386 41.0962 117.89C41.6483 117.48 42.165 117.022 42.6837 116.569C43.1186 116.19 43.5536 115.806 43.9542 115.391C44.829 114.485 45.7086 113.578 46.4305 112.54C47.0894 111.592 47.7581 110.649 48.3672 109.669C48.8143 108.95 49.1859 108.182 49.5671 107.424C50.0713 106.421 50.4642 105.372 50.8295 104.309C51.2833 102.988 51.6234 101.642 51.8847 100.272C52.0865 99.2149 52.2282 98.1539 52.265 97.0788C52.295 96.1958 52.3608 95.3123 52.3477 94.4298C52.3366 93.6866 52.2572 92.942 52.1682 92.2032C52.0613 91.3139 51.9355 90.4251 51.7729 89.5446C51.6423 88.8362 51.4855 88.1274 51.2673 87.4418C50.9248 86.3634 50.5416 85.2965 50.1371 84.2393C49.6954 83.0835 49.1143 81.992 48.495 80.9212C48.2584 80.5124 48.0498 80.0842 47.7813 79.6976C47.2927 78.9927 46.7909 78.2945 46.2539 77.6259C45.6723 76.902 45.0719 76.1889 44.4289 75.5207C43.7839 74.8501 43.1017 74.21 42.3885 73.6125C41.5655 72.923 40.7174 72.2563 39.831 71.651C39.0046 71.0864 38.1284 70.5895 37.2473 70.112C36.5226 69.7191 35.7581 69.3998 35.014 69.0432C34.9492 69.0122 34.9013 68.944 34.8456 68.8932C35.6338 69.2154 36.436 69.5081 37.2072 69.8671C38.5406 70.4869 39.8315 71.1938 41.0396 72.0333C41.8684 72.609 42.6851 73.2109 43.451 73.8675C44.3239 74.615 45.1609 75.4094 45.9616 76.2339C46.5751 76.8658 47.1402 77.5518 47.6686 78.2573C48.3266 79.1359 48.9469 80.0455 49.5439 80.9677C50.2135 82.0016 50.7593 83.1067 51.2368 84.2418C51.576 85.0488 51.9268 85.8558 52.1881 86.689C52.5166 87.737 52.7972 88.8038 53.0275 89.8774C53.2268 90.8074 53.358 91.7552 53.463 92.7016C53.5549 93.5299 53.5694 94.3669 53.6178 95.2001C53.6836 96.3332 53.6178 97.4625 53.4692 98.5845C53.326 99.6634 53.1838 100.745 52.9695 101.811C52.8006 102.65 52.5519 103.477 52.2843 104.292C51.9887 105.192 51.6752 106.091 51.2891 106.954C50.8343 107.972 50.3219 108.967 49.7805 109.943C49.3572 110.705 48.8632 111.43 48.3774 112.156C48.1113 112.554 47.8118 112.931 47.5026 113.297C46.803 114.124 46.114 114.962 45.3709 115.749C44.8038 116.349 44.1787 116.9 43.5449 117.431C42.8758 117.992 42.1902 118.54 41.4673 119.027C40.5369 119.653 39.5881 120.262 38.5992 120.788C37.5735 121.333 36.5105 121.824 35.4257 122.238C34.3115 122.664 33.1619 123.012 32.007 123.314C30.9861 123.58 29.9386 123.752 28.8974 123.933C28.3695 124.025 27.8305 124.059 27.2945 124.092C26.5324 124.138 25.768 124.204 25.0069 124.179C23.9173 124.144 22.8258 124.074 21.7439 123.944C20.6718 123.815 19.5981 123.646 18.5487 123.396C17.4504 123.134 16.3807 122.753 15.2983 122.425C15.2679 122.416 15.2364 122.409 15.2054 122.401V122.4Z" fill="#9D2630"/>
<path d="M25.278 75.0839C25.7376 75.0839 26.1997 75.0544 26.6564 75.0907C27.3875 75.1483 28.1224 75.1764 28.8375 75.3868C29.272 75.515 29.7297 75.5629 30.1734 75.6636C31.0651 75.8653 31.9224 76.1721 32.7735 76.5069C33.5365 76.8074 34.27 77.1596 34.9769 77.5704C35.602 77.9332 36.2522 78.2627 36.8362 78.6837C37.5867 79.2246 38.2843 79.8381 38.9994 80.4274C39.2839 80.662 39.5796 80.8914 39.8253 81.1638C40.3411 81.7347 40.8278 82.3322 41.3262 82.9186C41.3731 82.9738 41.4147 83.0333 41.4665 83.0831C41.7031 83.3115 41.8836 83.5771 42.0098 83.8805C42.0219 83.9095 42.035 83.9434 42.0577 83.9623C42.4661 84.3029 42.6088 84.824 42.9204 85.2289C43.3288 85.7597 43.5707 86.3795 43.8532 86.9751C44.0985 87.4928 44.2882 88.0371 44.4919 88.5736C44.6641 89.0285 44.8451 89.4828 44.9781 89.9497C45.1252 90.4645 45.2438 90.9894 45.3362 91.5168C45.4838 92.3591 45.6415 93.2029 45.7174 94.0535C45.7895 94.861 45.7828 95.6773 45.7736 96.4896C45.762 97.5003 45.5834 98.4932 45.4088 99.4879C45.2472 100.408 44.9994 101.298 44.6927 102.177C44.534 102.63 44.3874 103.09 44.2021 103.533C44.0153 103.98 43.7966 104.416 43.5755 104.848C43.2809 105.425 43.0094 106.019 42.6533 106.557C42.4216 106.907 42.2019 107.266 41.9706 107.616C41.121 108.905 40.0102 109.959 38.9244 111.035C38.6695 111.288 38.3647 111.489 38.0952 111.729C37.4468 112.307 36.7254 112.785 35.9915 113.239C35.4491 113.575 34.8709 113.855 34.2981 114.138C33.7262 114.42 33.1446 114.685 32.5587 114.937C32.2592 115.065 31.9447 115.162 31.6307 115.252C30.917 115.456 30.2068 115.686 29.481 115.834C28.6614 116 27.8292 116.125 26.9961 116.201C26.1416 116.279 25.279 116.315 24.4211 116.295C23.691 116.278 22.9604 116.178 22.2361 116.073C21.493 115.966 20.7527 115.829 20.0192 115.668C19.576 115.57 19.1464 115.408 18.7153 115.262C18.261 115.108 17.8071 114.95 17.3611 114.773C17.0054 114.631 16.6585 114.465 16.314 114.297C15.7291 114.012 15.1374 113.737 14.5694 113.419C14.1025 113.158 13.6283 112.885 13.2325 112.532C13.0172 112.34 12.7729 112.216 12.5581 112.041C12.0433 111.623 11.5338 111.198 11.0359 110.76C10.4278 110.226 9.88248 109.632 9.39236 108.985C9.11415 108.617 8.77983 108.293 8.50404 107.924C8.21374 107.536 7.94957 107.128 7.69846 106.713C7.3593 106.152 7.02255 105.588 6.72451 105.005C6.46469 104.497 6.25664 103.961 6.03166 103.436C5.88361 103.091 5.72346 102.748 5.60879 102.391C5.41865 101.798 5.25657 101.196 5.0911 100.595C4.95804 100.112 4.8245 99.6282 4.71855 99.1381C4.66484 98.8899 4.68274 98.6272 4.65081 98.3732C4.51098 97.2623 4.46599 96.1456 4.51292 95.0294C4.55501 94.0308 4.58985 93.0278 4.82838 92.0485C4.95659 91.5221 5.09061 90.9967 5.22367 90.4717C5.3543 89.955 5.48493 89.4383 5.62137 88.923C5.65379 88.7996 5.70459 88.6806 5.75346 88.562C5.84636 88.3366 5.94167 88.1116 6.0394 87.8881C6.27455 87.352 6.49227 86.8072 6.75402 86.2842C7.009 85.7742 7.30462 85.2846 7.59057 84.7911C7.99844 84.0876 8.44985 83.4165 9.0261 82.834C9.20124 82.6569 9.30865 82.4135 9.47799 82.2292C9.89699 81.7715 10.3242 81.3201 10.7674 80.8856C11.1385 80.5222 11.5256 80.1734 11.9252 79.8415C12.292 79.5366 12.6882 79.2676 13.0651 78.9744C13.2732 78.8128 13.4502 78.6062 13.6718 78.4688C14.1823 78.1514 14.6981 77.8365 15.2361 77.5699C16.0886 77.1475 16.9469 76.7295 17.8294 76.3772C18.5189 76.1019 19.247 75.9219 19.9621 75.7134C20.415 75.5813 20.8717 75.4594 21.3328 75.3617C21.7151 75.2804 22.1045 75.2126 22.4935 75.1875C23.4196 75.1275 24.3481 75.096 25.2756 75.0535C25.2761 75.0641 25.2765 75.0743 25.2775 75.0849L25.278 75.0839ZM36.1497 78.8569L36.1516 78.8583C36.1032 78.8182 36.0592 78.7707 36.0055 78.7393C35.5609 78.4804 35.1152 78.223 34.6682 77.9686C33.523 77.3173 32.3119 76.8107 31.0506 76.4474C30.0897 76.1711 29.1051 75.9694 28.1224 75.7802C27.5264 75.6655 26.9153 75.5968 26.3086 75.5775C24.8295 75.53 23.3456 75.5208 21.8878 75.8174C20.8369 76.0313 19.7884 76.278 18.7613 76.5848C17.6359 76.9211 16.5569 77.3952 15.5409 77.9898C14.7788 78.4359 14.0134 78.8844 13.2993 79.4007C12.619 79.8923 11.9978 80.4666 11.3606 81.0162C10.5047 81.755 9.77168 82.6114 9.10738 83.5195C8.58242 84.2371 8.11214 84.9962 7.64234 85.7519C7.03271 86.7317 6.58468 87.7908 6.19665 88.8746C5.74088 90.1471 5.37849 91.4452 5.22608 92.7927C5.13512 93.5963 5.05142 94.4014 5.0011 95.2084C4.97352 95.6477 5.00401 96.0929 5.04078 96.5327C5.11287 97.4021 5.17286 98.275 5.3035 99.1367C5.40897 99.8314 5.58605 100.519 5.77862 101.196C5.97796 101.897 6.20149 102.596 6.47582 103.271C6.74435 103.931 7.05642 104.58 7.40913 105.201C7.85716 105.988 8.34389 106.757 8.85288 107.506C9.5975 108.602 10.5119 109.555 11.4714 110.463C11.678 110.659 11.9242 110.812 12.1521 110.985L12.1512 110.983C12.1681 111.001 12.1845 111.019 12.2015 111.036C12.3007 111.149 12.3829 111.286 12.5024 111.37C12.9388 111.674 13.4236 111.92 13.8223 112.265C14.2399 112.627 14.7305 112.849 15.1925 113.122C15.7823 113.47 16.3934 113.791 17.0224 114.062C17.8178 114.405 18.6297 114.719 19.4546 114.98C20.1233 115.192 20.8205 115.315 21.508 115.464C22.3866 115.654 23.2807 115.755 24.1763 115.764C25.2117 115.775 26.2505 115.742 27.2835 115.666C27.9903 115.614 28.6919 115.467 29.391 115.339C29.7829 115.267 30.169 115.157 30.5518 115.044C31.143 114.869 31.7376 114.699 32.3153 114.485C32.7629 114.318 33.1775 114.064 33.6226 113.889C34.8782 113.396 35.9615 112.614 37.0699 111.874C37.4255 111.636 37.7463 111.354 38.0666 111.064C38.7648 110.43 39.4731 109.809 40.0944 109.098C40.3759 108.777 40.6329 108.433 40.9004 108.099C41.0906 107.862 41.2904 107.63 41.467 107.383C41.7176 107.03 41.9498 106.665 42.1922 106.307C42.2861 106.168 42.4046 106.042 42.4801 105.894C42.7037 105.455 42.9098 105.009 43.1251 104.567C43.3176 104.17 43.532 103.784 43.7023 103.379C43.9161 102.87 44.1024 102.35 44.2858 101.83C44.4377 101.4 44.6037 100.969 44.7004 100.525C44.8485 99.8469 44.9602 99.1589 45.0536 98.4704C45.1407 97.8289 45.1983 97.1825 45.2418 96.5361C45.2694 96.1267 45.2588 95.7135 45.2438 95.3028C45.2283 94.8789 45.1935 94.4551 45.1543 94.0327C45.1127 93.5866 45.0696 93.14 45.0023 92.6978C44.9104 92.0984 44.8427 91.4887 44.6787 90.9081C44.3835 89.8631 44.1106 88.8088 43.6558 87.8136C43.3138 87.0651 43.0191 86.2953 42.5363 85.6174C42.393 85.4162 42.3219 85.1626 42.1763 84.9633C41.5802 84.1485 40.9749 83.34 40.358 82.5403C40.1389 82.2563 39.8936 81.9887 39.6323 81.7429C39.3643 81.4908 39.1596 81.1749 38.8354 80.9765C38.6946 80.8904 38.6003 80.7327 38.4687 80.6277C37.8199 80.1119 37.2054 79.5516 36.4942 79.1167C36.3839 79.0494 36.2953 78.9454 36.1971 78.8583C36.1816 78.8583 36.1661 78.8573 36.1506 78.8559L36.1497 78.8569Z" fill="#FDFDFE"/>
<path d="M36.1962 78.859C36.2949 78.9461 36.383 79.0496 36.4933 79.1173C37.2045 79.5518 37.8195 80.1121 38.4678 80.6283C38.5994 80.7333 38.6942 80.8911 38.8345 80.9772C39.1587 81.1756 39.3634 81.4915 39.6314 81.7436C39.8927 81.9889 40.138 82.2569 40.3572 82.5409C40.974 83.3402 41.5793 84.1487 42.1754 84.964C42.321 85.1633 42.3921 85.4163 42.5354 85.6181C43.0182 86.2959 43.3129 87.0652 43.6549 87.8142C44.1097 88.8099 44.3826 89.8642 44.6778 90.9088C44.8418 91.4894 44.9095 92.099 45.0014 92.6985C45.0692 93.1407 45.1122 93.5873 45.1534 94.0334C45.1926 94.4558 45.2274 94.8796 45.2429 95.3034C45.2579 95.7142 45.2685 96.1274 45.2409 96.5367C45.1974 97.1826 45.1398 97.8295 45.0527 98.4711C44.9594 99.1596 44.8476 99.8476 44.6995 100.526C44.6028 100.97 44.4368 101.4 44.2849 101.83C44.101 102.351 43.9148 102.871 43.7014 103.38C43.5311 103.785 43.3167 104.172 43.1242 104.567C42.9089 105.01 42.7028 105.457 42.4792 105.894C42.4038 106.043 42.2852 106.168 42.1914 106.307C41.949 106.666 41.7172 107.031 41.4661 107.383C41.2895 107.631 41.0902 107.862 40.8995 108.1C40.632 108.434 40.3751 108.777 40.0935 109.099C39.4722 109.81 38.7639 110.43 38.0657 111.064C37.7459 111.355 37.4251 111.637 37.069 111.875C35.9606 112.614 34.8773 113.397 33.6217 113.89C33.1766 114.064 32.7625 114.319 32.3144 114.485C31.7367 114.7 31.1421 114.87 30.5509 115.044C30.1681 115.157 29.7821 115.267 29.3901 115.339C28.6905 115.468 27.9895 115.614 27.2826 115.666C26.2496 115.743 25.2108 115.775 24.1754 115.765C23.2803 115.755 22.3857 115.654 21.5071 115.465C20.8196 115.316 20.1224 115.193 19.4537 114.981C18.6283 114.72 17.8169 114.406 17.0215 114.063C16.3925 113.793 15.7819 113.471 15.1916 113.122C14.7296 112.85 14.2395 112.628 13.8214 112.266C13.4223 111.921 12.9379 111.675 12.5015 111.37C12.382 111.287 12.2998 111.15 12.2006 111.037C12.1837 111.019 12.1672 111.002 12.1503 110.984L12.1512 110.985C12.1145 110.925 12.0854 110.86 12.0404 110.806C11.7506 110.464 11.4502 110.13 11.1666 109.782C10.3586 108.79 9.66193 107.723 9.08423 106.583C8.7799 105.983 8.5046 105.366 8.25301 104.741C7.99609 104.102 7.75563 103.454 7.55968 102.795C7.25099 101.758 7.0144 100.702 6.91667 99.6197C6.85328 98.9181 6.77732 98.2166 6.74007 97.5136C6.71878 97.1144 6.75168 96.7104 6.78168 96.3103C6.83974 95.5434 6.86732 94.7702 6.99069 94.0135C7.19293 92.772 7.45323 91.5353 7.92836 90.365C8.34058 89.3494 8.75716 88.3285 9.27389 87.3642C9.74466 86.4856 10.332 85.666 10.9049 84.8459C11.546 83.9286 12.3085 83.106 13.1295 82.3508C13.819 81.717 14.5472 81.1175 15.3097 80.5742C16.0708 80.0323 16.8754 79.5436 17.6959 79.0946C19.2597 78.2387 20.9304 77.6547 22.6697 77.2633C23.8217 77.004 24.9882 76.8414 26.1649 76.7872C26.9105 76.7529 27.6643 76.7659 28.4075 76.8341C29.4187 76.927 30.4338 77.0398 31.4276 77.2396C32.9744 77.5507 34.4641 78.0582 35.8798 78.7675C35.964 78.8096 36.0598 78.8285 36.1502 78.8585L36.1483 78.857C36.1638 78.858 36.1793 78.8585 36.1948 78.8595L36.1962 78.859Z" fill="white"/>
<path d="M36.0061 78.7399C36.04 78.7594 36.0088 78.8165 35.9716 78.8041C35.9406 78.7937 35.9102 78.7819 35.8812 78.7674C34.4655 78.0581 32.9753 77.5501 31.429 77.2395C30.4347 77.0397 29.4202 76.9269 28.4089 76.834C27.6658 76.7658 26.912 76.7528 26.1664 76.7871C24.9897 76.8413 23.8232 77.0039 22.6712 77.2632C20.9318 77.6546 19.2611 78.2391 17.6974 79.0945C16.8773 79.5435 16.0722 80.0317 15.3111 80.5741C14.5491 81.1169 13.8205 81.7169 13.131 82.3507C12.3095 83.1059 11.5474 83.9285 10.9063 84.8458C10.3335 85.6659 9.74612 86.4855 9.27535 87.3641C8.75862 88.3284 8.34204 89.3493 7.92982 90.3649C7.4547 91.5353 7.1944 92.7719 6.99215 94.0134C6.86878 94.7702 6.8412 95.5433 6.78314 96.3102C6.75266 96.7103 6.72024 97.1143 6.74153 97.5135C6.77878 98.2165 6.85475 98.918 6.91813 99.6196C7.01586 100.701 7.25294 101.758 7.56114 102.795C7.75709 103.454 7.99755 104.103 8.25447 104.741C8.50558 105.366 8.78136 105.982 9.08569 106.583C9.66339 107.723 10.3601 108.79 11.1681 109.782C11.4516 110.13 11.7521 110.464 12.0419 110.806C12.0704 110.84 12.0183 110.886 11.9825 110.861C11.8064 110.735 11.6279 110.611 11.4719 110.464C10.5125 109.556 9.59807 108.602 8.85345 107.507C8.34398 106.757 7.85773 105.988 7.4097 105.201C7.05699 104.581 6.74492 103.932 6.47639 103.271C6.20254 102.596 5.97853 101.898 5.77919 101.197C5.58662 100.52 5.41003 99.832 5.30407 99.1372C5.17295 98.276 5.11344 97.4032 5.04135 96.5332C5.00506 96.0934 4.97409 95.6478 5.00167 95.209C5.05199 94.402 5.13569 93.5969 5.22665 92.7932C5.37906 91.4458 5.74145 90.1481 6.19722 88.8752C6.58525 87.7914 7.03328 86.7323 7.64291 85.7525C8.11319 84.9968 8.58347 84.2376 9.10795 83.5201C9.77225 82.612 10.5053 81.7556 11.3612 81.0168C11.9984 80.4671 12.6196 79.8928 13.2999 79.4013C14.014 78.885 14.7799 78.4365 15.5415 77.9904C16.5575 77.3953 17.6364 76.9216 18.7618 76.5854C19.789 76.2786 20.837 76.0319 21.8884 75.818C23.3461 75.5214 24.83 75.5301 26.3091 75.578C26.9158 75.5974 27.5269 75.6661 28.123 75.7807C29.1057 75.9699 30.0903 76.1717 31.0511 76.4479C32.3125 76.8108 33.5235 77.3174 34.6688 77.9691C35.1158 78.2236 35.5614 78.481 36.0061 78.7399Z" fill="#F23D4C"/>
<path d="M36.195 78.859C36.1799 78.8581 36.1648 78.8576 36.1497 78.8567C36.1648 78.8581 36.1799 78.859 36.195 78.859Z" fill="#D0D2D8"/>
</g>
<path d="M11.9173 122.849L127 70V74.5L8.42598 130.329C7.76272 130.641 7 130.157 7 129.424V55.5L10.5 59V121.94C10.5 122.669 11.2549 123.153 11.9173 122.849Z" fill="#3D86CC"/>
</svg>
