<svg width="32" height="33" viewBox="0 0 32 33" fill="none" xmlns="http://www.w3.org/2000/svg">
<path fill-rule="evenodd" clip-rule="evenodd" d="M16 13.9551C17.4728 13.9551 18.6667 15.149 18.6667 16.6217C18.6667 18.0945 17.4728 19.2884 16 19.2884C14.5272 19.2884 13.3333 18.0945 13.3333 16.6217C13.3333 15.149 14.5272 13.9551 16 13.9551ZM6.66667 13.9551C8.13943 13.9551 9.33333 15.149 9.33333 16.6217C9.33333 18.0945 8.13943 19.2884 6.66667 19.2884C5.19391 19.2884 4 18.0945 4 16.6217C4 15.149 5.19391 13.9551 6.66667 13.9551ZM25.3333 13.9551C26.8061 13.9551 28 15.149 28 16.6217C28 18.0945 26.8061 19.2884 25.3333 19.2884C23.8606 19.2884 22.6667 18.0945 22.6667 16.6217C22.6667 15.149 23.8606 13.9551 25.3333 13.9551Z" fill="white"/>
</svg>
