<svg width="20" height="21" viewBox="0 0 20 21" fill="none" xmlns="http://www.w3.org/2000/svg">
<path d="M7 16.082V3.08203L19 1.08203V14.082" stroke="#77838F" stroke-width="2" stroke-linecap="round" stroke-linejoin="round"/>
<path d="M4 19.082C5.65685 19.082 7 17.7389 7 16.082C7 14.4252 5.65685 13.082 4 13.082C2.34315 13.082 1 14.4252 1 16.082C1 17.7389 2.34315 19.082 4 19.082Z" stroke="#77838F" stroke-width="2" stroke-linecap="round" stroke-linejoin="round"/>
<path d="M16 17.082C17.6569 17.082 19 15.7389 19 14.082C19 12.4252 17.6569 11.082 16 11.082C14.3431 11.082 13 12.4252 13 14.082C13 15.7389 14.3431 17.082 16 17.082Z" stroke="#77838F" stroke-width="2" stroke-linecap="round" stroke-linejoin="round"/>
</svg>
