<svg width="30" height="30" viewBox="0 0 30 30" fill="none" xmlns="http://www.w3.org/2000/svg">
<path d="M0 2.50438C1.68557e-05 2.046 0.126118 1.59646 0.364512 1.20491C0.602906 0.813368 0.944411 0.494906 1.35167 0.284359C1.75893 0.0738116 2.21627 -0.0207121 2.67365 0.0111272C3.13104 0.0429666 3.57085 0.199943 3.945 0.464885L21.445 12.8693C21.7701 13.0991 22.0356 13.4032 22.2193 13.7563C22.4031 14.1094 22.4999 14.5013 22.5016 14.8993C22.5033 15.2973 22.4099 15.69 22.2292 16.0447C22.0484 16.3993 21.7856 16.7057 21.4625 16.9383L3.9625 29.5277C3.58917 29.7969 3.14873 29.9579 2.68974 29.9928C2.23075 30.0277 1.77102 29.9353 1.36123 29.7256C0.951442 29.516 0.607498 29.1974 0.36731 28.8048C0.127122 28.4122 1.53245e-05 27.9609 0 27.5007V2.50438ZM30 1.24969C30 0.918252 29.8683 0.600389 29.6339 0.366026C29.3995 0.131664 29.0815 0 28.75 0C28.4185 0 28.1005 0.131664 27.8661 0.366026C27.6317 0.600389 27.5 0.918252 27.5 1.24969V28.7429C27.5 29.0743 27.6317 29.3922 27.8661 29.6266C28.1005 29.8609 28.4185 29.9926 28.75 29.9926C29.0815 29.9926 29.3995 29.8609 29.6339 29.6266C29.8683 29.3922 30 29.0743 30 28.7429V1.24969Z" fill="#F66470"/>
</svg>
