<svg width="30" height="30" viewBox="0 0 30 30" fill="none" xmlns="http://www.w3.org/2000/svg">
<path d="M30 2.50438C30 2.046 29.8739 1.59646 29.6355 1.20491C29.3971 0.813368 29.0556 0.494906 28.6483 0.284359C28.2411 0.0738116 27.7837 -0.0207121 27.3263 0.0111272C26.869 0.0429666 26.4291 0.199943 26.055 0.464885L8.555 12.8693C8.22992 13.0991 7.96445 13.4032 7.78066 13.7563C7.59688 14.1094 7.50011 14.5013 7.4984 14.8993C7.49668 15.2973 7.59008 15.69 7.77082 16.0447C7.95156 16.3993 8.21441 16.7057 8.5375 16.9383L26.0375 29.5277C26.4108 29.7969 26.8513 29.9579 27.3103 29.9928C27.7693 30.0277 28.229 29.9353 28.6388 29.7256C29.0486 29.516 29.3925 29.1974 29.6327 28.8048C29.8729 28.4122 30 27.9609 30 27.5007V2.50438ZM0 1.24969C0 0.918252 0.131695 0.600389 0.366116 0.366026C0.600536 0.131664 0.91848 0 1.25 0C1.58152 0 1.89946 0.131664 2.13388 0.366026C2.36831 0.600389 2.5 0.918252 2.5 1.24969V28.7429C2.5 29.0743 2.36831 29.3922 2.13388 29.6266C1.89946 29.8609 1.58152 29.9926 1.25 29.9926C0.91848 29.9926 0.600536 29.8609 0.366116 29.6266C0.131695 29.3922 0 29.0743 0 28.7429V1.24969Z" fill="#F66470"/>
</svg>
