<svg width="62" height="62" viewBox="0 0 62 62" fill="none" xmlns="http://www.w3.org/2000/svg">
<mask id="path-1-outside-1_1387_14805" maskUnits="userSpaceOnUse" x="0.5" y="0.373047" width="61" height="61" fill="black">
<rect fill="white" x="0.5" y="0.373047" width="61" height="61"/>
<path d="M43.8265 5.78726L8.96579 40.648C8.77114 40.8427 8.67381 40.94 8.60684 41.0583C8.53986 41.1766 8.50648 41.3101 8.43972 41.5771L4.70211 56.5276C4.61186 56.8886 4.56673 57.0691 4.66682 57.1692C4.7669 57.2693 4.94741 57.2242 5.30842 57.1339L5.30845 57.1339L20.2589 53.3963C20.5259 53.3295 20.6595 53.2961 20.7777 53.2292C20.896 53.1622 20.9933 53.0649 21.188 52.8703L21.188 52.8702L56.0488 18.0095C56.7154 17.3428 57.0488 17.0095 57.0488 16.5953C57.0488 16.1811 56.7154 15.8477 56.0488 15.1811L46.655 5.78726C45.9883 5.12059 45.655 4.78726 45.2407 4.78726C44.8265 4.78726 44.4932 5.12059 43.8265 5.78726Z"/>
</mask>
<path d="M8.96579 40.648L11.7942 43.4764L11.7942 43.4764L8.96579 40.648ZM43.8265 5.78726L46.655 8.61569L46.655 8.61568L43.8265 5.78726ZM46.655 5.78726L49.4834 2.95883L49.4834 2.95883L46.655 5.78726ZM56.0488 15.1811L53.2203 18.0095L53.2203 18.0095L56.0488 15.1811ZM56.0488 18.0095L53.2203 15.1811V15.1811L56.0488 18.0095ZM21.188 52.8702L18.3596 50.0418L18.2852 50.1162L18.2148 50.1944L21.188 52.8702ZM8.43972 41.5771L12.3203 42.5473L8.43972 41.5771ZM4.70211 56.5276L8.58268 57.4977L8.58268 57.4977L4.70211 56.5276ZM5.30845 57.1339L4.33831 53.2533L4.16404 53.2969L3.99437 53.3559L5.30845 57.1339ZM20.2589 53.3963L19.2887 49.5157H19.2887L20.2589 53.3963ZM4.66682 57.1692L1.83838 59.9976L1.83839 59.9976L4.66682 57.1692ZM5.30842 57.1339L6.27848 61.0145L6.4528 60.9709L6.6225 60.9119L5.30842 57.1339ZM21.188 52.8703L24.0163 55.6988L24.0907 55.6244L24.1611 55.5461L21.188 52.8703ZM20.7777 53.2292L22.7485 56.71L22.7485 56.71L20.7777 53.2292ZM8.60684 41.0583L5.12603 39.0875L5.12603 39.0875L8.60684 41.0583ZM11.7942 43.4764L46.655 8.61569L40.9981 2.95883L6.13736 37.8196L11.7942 43.4764ZM43.8265 8.61569L53.2203 18.0095L58.8772 12.3526L49.4834 2.95883L43.8265 8.61569ZM53.2203 15.1811L18.3596 50.0418L24.0164 55.6987L58.8772 20.8379L53.2203 15.1811ZM4.55915 40.607L0.821543 55.5574L8.58268 57.4977L12.3203 42.5473L4.55915 40.607ZM6.27859 61.0145L21.229 57.2769L19.2887 49.5157L4.33831 53.2533L6.27859 61.0145ZM0.821543 55.5574C0.809025 55.6075 0.677969 56.0878 0.632087 56.5568C0.581367 57.0753 0.513414 58.6726 1.83838 59.9976L7.49525 54.3408C8.05163 54.8972 8.37244 55.5588 8.51547 56.1802C8.64128 56.7267 8.61125 57.1602 8.59408 57.3357C8.58407 57.438 8.57148 57.5158 8.56393 57.5585C8.55624 57.6021 8.55018 57.6293 8.54956 57.6321C8.54886 57.6353 8.55046 57.6279 8.55671 57.6023C8.56312 57.576 8.57075 57.5454 8.58268 57.4977L0.821543 55.5574ZM3.99437 53.3559L3.99434 53.3559L6.6225 60.9119L6.62253 60.9119L3.99437 53.3559ZM4.33836 53.2533C4.29062 53.2653 4.26007 53.2729 4.23377 53.2793C4.20812 53.2855 4.20076 53.2871 4.20395 53.2864C4.20671 53.2858 4.23396 53.2798 4.27754 53.2721C4.32027 53.2645 4.39801 53.2519 4.50037 53.2419C4.67586 53.2248 5.10932 53.1947 5.65583 53.3205C6.27721 53.4636 6.93886 53.7844 7.49524 54.3408L1.83839 59.9976C3.16335 61.3226 4.76071 61.2546 5.27917 61.2039C5.74817 61.1581 6.22844 61.027 6.27848 61.0145L4.33836 53.2533ZM18.2148 50.1944L18.2148 50.1944L24.1611 55.5461L24.1612 55.5461L18.2148 50.1944ZM18.3596 50.0418C18.3067 50.0947 18.2802 50.1211 18.2601 50.1408C18.2406 50.1599 18.2519 50.1482 18.2802 50.1228C18.3476 50.0622 18.5314 49.9044 18.807 49.7484L22.7485 56.71C23.4485 56.3137 23.9719 55.7431 24.0163 55.6988L18.3596 50.0418ZM21.229 57.2769C21.2901 57.2616 22.0485 57.1063 22.7485 56.71L18.807 49.7483C19.0826 49.5923 19.3123 49.5159 19.399 49.4893C19.4355 49.4781 19.4513 49.4744 19.4249 49.4813C19.3976 49.4885 19.3613 49.4976 19.2887 49.5157L21.229 57.2769ZM53.2203 18.0095C53.3975 18.1867 53.5043 18.2938 53.5874 18.3812C53.6718 18.47 53.663 18.4673 53.6187 18.4092C53.5727 18.349 53.4266 18.1499 53.2944 17.8329C53.1489 17.484 53.0488 17.0609 53.0488 16.5953H61.0488C61.0488 15.1619 60.417 14.1308 59.9788 13.5565C59.6111 13.0746 59.1306 12.606 58.8772 12.3526L53.2203 18.0095ZM58.8772 20.8379C59.1306 20.5845 59.6111 20.116 59.9788 19.634C60.417 19.0598 61.0488 18.0286 61.0488 16.5953H53.0488C53.0488 16.1297 53.1489 15.7066 53.2944 15.3577C53.4266 15.0406 53.5727 14.8416 53.6187 14.7814C53.663 14.7233 53.6718 14.7205 53.5874 14.8093C53.5043 14.8967 53.3975 15.0039 53.2203 15.1811L58.8772 20.8379ZM46.655 8.61568C46.8321 8.4385 46.9393 8.33171 47.0267 8.24864C47.1155 8.16418 47.1128 8.173 47.0546 8.21735C46.9944 8.26327 46.7954 8.4094 46.4783 8.54161C46.1294 8.68711 45.7063 8.78726 45.2407 8.78726V0.787261C43.8074 0.787261 42.7762 1.41904 42.202 1.85717C41.72 2.22489 41.2515 2.70546 40.9981 2.95884L46.655 8.61568ZM49.4834 2.95883C49.23 2.70546 48.7614 2.22489 48.2795 1.85717C47.7052 1.41903 46.6741 0.787261 45.2407 0.787261V8.78726C44.7751 8.78726 44.3521 8.68711 44.0031 8.54161C43.6861 8.4094 43.487 8.26327 43.4269 8.21735C43.3687 8.173 43.366 8.16418 43.4548 8.24864C43.5422 8.33171 43.6493 8.43851 43.8265 8.61569L49.4834 2.95883ZM6.13738 37.8196C6.09289 37.864 5.52237 38.3875 5.12603 39.0875L12.0876 43.029C11.9316 43.3046 11.7739 43.4884 11.7132 43.5558C11.6877 43.5842 11.6761 43.5955 11.6951 43.576C11.7149 43.5558 11.7413 43.5294 11.7942 43.4764L6.13738 37.8196ZM12.3203 42.5473C12.3384 42.4747 12.3475 42.4384 12.3547 42.4111C12.3616 42.3848 12.3579 42.4006 12.3467 42.437C12.3201 42.5237 12.2437 42.7535 12.0876 43.029L5.12603 39.0875C4.72971 39.7875 4.57441 40.546 4.55915 40.607L12.3203 42.5473Z" fill="#F23D4C" mask="url(#path-1-outside-1_1387_14805)"/>
<path d="M35.0547 10.4841L47.2769 2.33594L59.4991 14.5582L51.351 26.7804L35.0547 10.4841Z" fill="#F23D4C"/>
</svg>
