<svg width="25" height="25" viewBox="0 0 25 25" fill="none" xmlns="http://www.w3.org/2000/svg">
<path fill-rule="evenodd" clip-rule="evenodd" d="M11.1496 2.5C16.1202 2.5 20.1496 6.52944 20.1496 11.5C20.1496 13.6248 19.4133 15.5776 18.1819 17.1172L21.8567 20.7929C22.2472 21.1834 22.2472 21.8166 21.8567 22.2071C21.4962 22.5676 20.929 22.5953 20.5367 22.2903L20.4425 22.2071L16.7668 18.5323C15.2272 19.7637 13.2744 20.5 11.1496 20.5C6.17903 20.5 2.1496 16.4706 2.1496 11.5C2.1496 6.52944 6.17903 2.5 11.1496 2.5ZM11.1496 4.5C7.2836 4.5 4.1496 7.63401 4.1496 11.5C4.1496 15.366 7.2836 18.5 11.1496 18.5C15.0156 18.5 18.1496 15.366 18.1496 11.5C18.1496 7.63401 15.0156 4.5 11.1496 4.5Z" fill="#8A8887"/>
</svg>
