<svg width="25" height="25" viewBox="0 0 25 25" fill="none" xmlns="http://www.w3.org/2000/svg">
<path fill-rule="evenodd" clip-rule="evenodd" d="M12.1533 3.08398C9.3919 3.08398 7.15332 5.32256 7.15332 8.08398V16.084C7.15332 16.6363 6.70561 17.084 6.15332 17.084C3.3919 17.084 1.15332 14.8454 1.15332 12.084C1.15332 9.64428 2.90065 7.61271 5.21213 7.17243C5.65888 3.73712 8.59627 1.08398 12.1533 1.08398C15.7104 1.08398 18.6478 3.73712 19.0945 7.17243C21.406 7.61271 23.1533 9.64428 23.1533 12.084C23.1533 14.5237 21.406 16.5553 19.0945 16.9955C18.6478 20.4308 15.7104 23.084 12.1533 23.084C11.601 23.084 11.1533 22.6363 11.1533 22.084C11.1533 21.5317 11.601 21.084 12.1533 21.084C14.9147 21.084 17.1533 18.8454 17.1533 16.084V8.08398C17.1533 5.32256 14.9147 3.08398 12.1533 3.08398ZM19.1533 14.9133C20.3185 14.5014 21.1533 13.3902 21.1533 12.084C21.1533 10.7778 20.3185 9.66652 19.1533 9.25469V14.9133ZM5.15332 9.25469C3.98813 9.66652 3.15332 10.7778 3.15332 12.084C3.15332 13.3902 3.98813 14.5014 5.15332 14.9133V9.25469Z" fill="#F23D4C"/>
</svg>
