<svg width="25" height="24" viewBox="0 0 25 24" fill="none" xmlns="http://www.w3.org/2000/svg">
<circle cx="12.1533" cy="8" r="4" stroke="#F23D4C" stroke-width="2" stroke-linecap="round"/>
<path fill-rule="evenodd" clip-rule="evenodd" d="M13.4799 15.0759C13.0418 15.0255 12.5984 15 12.1532 15C10.2337 15 8.34703 15.4738 6.78433 16.3732C5.22221 17.2721 4.03444 18.5702 3.4841 20.1106C3.29829 20.6307 3.56928 21.203 4.08937 21.3888C4.60946 21.5746 5.1817 21.3036 5.36751 20.7835C5.72878 19.7723 6.54973 18.8157 7.78192 18.1066C8.79592 17.523 10.017 17.1503 11.3112 17.0368C11.6421 16.0601 12.4622 15.3092 13.4799 15.0759Z" fill="#F23D4C"/>
<path fill-rule="evenodd" clip-rule="evenodd" d="M17.5888 12.8788L18.6758 12.8788C18.7087 12.8803 18.7375 12.8841 18.7781 12.8929C19.0754 12.9576 19.1884 13.0644 19.465 13.7181L19.5101 13.8259L19.684 14.2567L19.6983 14.2626L19.9223 14.1612C20.4102 13.943 20.6617 13.8512 20.8308 13.8255L20.8658 13.821L20.9296 13.8176C21.0819 13.8176 21.237 13.8715 21.3557 13.9654L21.4118 14.0156L22.1068 14.7077L22.1551 14.7587C22.3734 14.9992 22.3938 15.1697 22.1523 15.791L22.072 15.9914L21.8826 16.4395L21.8862 16.4483L22.32 16.6103L22.5292 16.693C23.0694 16.9139 23.1804 17.0316 23.2527 17.302C23.2672 17.3565 23.2724 17.3937 23.2741 17.4398L23.2748 17.4899V18.4669C23.2748 18.5364 23.2724 18.5756 23.2553 18.6442C23.1834 18.9329 23.0767 19.0429 22.4275 19.3171L22.3204 19.3618L21.8925 19.5345L21.8895 19.5417L22.0443 19.8797C22.4289 20.7347 22.4424 20.9221 22.1895 21.2037L22.1579 21.238L21.4445 21.9508C21.3169 22.0799 21.1349 22.151 20.9589 22.151C20.8093 22.151 20.5745 22.0799 20.1743 21.9194L19.96 21.8316L19.7159 21.7284L19.7019 21.7342L19.5758 22.0724C19.267 22.886 19.1612 23.0181 18.844 23.1C18.7971 23.1121 18.7636 23.1172 18.7255 23.1193L18.6627 23.1206H17.6851C17.6241 23.1206 17.5897 23.1188 17.5291 23.1057C17.2319 23.0412 17.1184 22.9343 16.8412 22.2801L16.796 22.1722L16.6219 21.7412L16.6085 21.7357L16.2831 21.8819C15.7627 22.111 15.5373 22.1808 15.3766 22.1808C15.2261 22.1808 15.0729 22.1279 14.951 22.0331L14.8928 21.9823L14.1989 21.2892L14.1196 21.2028C13.9293 20.9788 13.9199 20.8052 14.1535 20.2075L14.2753 19.9083L14.4239 19.559L14.4208 19.5515L14.0843 19.4262C13.4095 19.1701 13.2015 19.0521 13.1027 18.8368L13.0759 18.769L13.0536 18.694C13.041 18.646 13.0356 18.6117 13.0334 18.5726L13.032 18.5081V17.5305C13.032 17.4605 13.0344 17.4209 13.0518 17.3517C13.1168 17.0935 13.2091 16.9789 13.6949 16.7612L13.8963 16.6742L14.4134 16.4651L14.4169 16.4565L14.2236 16.0299C13.9046 15.3053 13.8782 15.0847 14.0794 14.8383L14.107 14.8059L14.1722 14.7368L14.8635 14.0471C14.9901 13.9197 15.1713 13.8479 15.3476 13.8479C15.4737 13.8479 15.6589 13.8979 15.9553 14.0101L16.2535 14.1283L16.5915 14.27L16.6054 14.2642L16.7325 13.9237C17.0441 13.1043 17.1554 12.9673 17.4841 12.8937C17.5256 12.8844 17.5552 12.8804 17.5888 12.8788ZM18.4219 13.9018H17.8509L17.7704 14.0905C17.7398 14.1655 17.7053 14.2532 17.6664 14.3549L17.4879 14.8323C17.4451 14.9453 17.364 15.0389 17.2597 15.0975L17.2057 15.1237L16.7862 15.2983C16.6803 15.3424 16.5633 15.3494 16.4539 15.3194L16.3893 15.2969L15.893 15.0877L15.625 14.9808L15.4448 14.9143L15.0401 15.3181L15.0877 15.4384C15.1063 15.4837 15.1277 15.5344 15.1522 15.5908L15.2347 15.7779L15.4415 16.2302C15.4911 16.3379 15.5015 16.4587 15.4722 16.5721L15.4499 16.6391L15.2784 17.056C15.2329 17.1663 15.1507 17.2568 15.0466 17.3125L14.9927 17.3375L14.4358 17.5613L14.1573 17.6807L14.0569 17.7272V18.306L14.1771 18.3581C14.2226 18.3771 14.2736 18.3979 14.3308 18.4205L14.5208 18.4942L14.9825 18.6657C15.0989 18.7077 15.1955 18.7901 15.2554 18.8968L15.2822 18.9521L15.4538 19.3677C15.4978 19.4744 15.5043 19.5923 15.4733 19.7021L15.4502 19.7669L15.2511 20.2342L15.1262 20.5424L15.0654 20.706L15.4701 21.1103L15.5906 21.0626C15.635 21.0445 15.6837 21.0242 15.7367 21.0016L16.1085 20.8377L16.3765 20.7143C16.4887 20.6607 16.6159 20.65 16.7343 20.6829L16.7928 20.703L17.2147 20.8772C17.3266 20.9234 17.4178 21.0074 17.4733 21.1135L17.4979 21.1684L17.6029 21.4333L17.7524 21.7968L17.8388 21.9953L17.8857 22.096H18.4584L18.5402 21.9032L18.6467 21.6312L18.8202 21.1662C18.863 21.0521 18.9447 20.9577 19.0499 20.899L19.1043 20.8726L19.5245 20.6992C19.6292 20.656 19.7446 20.649 19.8528 20.678L19.9167 20.6998L20.3123 20.8676L20.6011 20.9852L20.7591 21.0462L20.8634 21.0839L21.2686 20.6795L21.1905 20.4868L21.0734 20.2197L20.8661 19.7678C20.8164 19.6599 20.806 19.5388 20.8354 19.4251L20.8578 19.358L21.029 18.943C21.0742 18.8335 21.1557 18.7436 21.2588 18.6878L21.3122 18.6628L21.7839 18.4732L22.0247 18.3723L22.0909 18.3435L22.2512 18.2702V17.6919L22.0905 17.6233L21.8729 17.5372L21.3237 17.3328C21.2076 17.2905 21.1113 17.208 21.0517 17.1013L21.025 17.046L20.8538 16.6287C20.8101 16.5222 20.8038 16.4048 20.8346 16.2953L20.8576 16.2307L21.0166 15.8589C21.058 15.7606 21.094 15.6734 21.1252 15.5964L21.1809 15.4554L21.2417 15.2908L20.8368 14.8875L20.7162 14.9352C20.6495 14.9624 20.5731 14.9947 20.4864 15.0324L20.3963 15.0719L19.9237 15.2863C19.8161 15.3355 19.6956 15.3458 19.5824 15.3166L19.5156 15.2944L19.0939 15.121C18.9835 15.0757 18.893 14.9934 18.8372 14.8893L18.8123 14.8355L18.6632 14.4625L18.5551 14.2011L18.4953 14.0621L18.4219 13.9018ZM18.1538 15.9509C19.2836 15.9509 20.2021 16.8692 20.2021 17.999C20.2021 19.1289 19.2836 20.048 18.1538 20.048C17.0237 20.048 16.105 19.1291 16.105 17.999C16.105 16.869 17.0236 15.9509 18.1538 15.9509ZM18.153 16.974C17.5884 16.974 17.1285 17.4337 17.1285 17.9979C17.1285 18.5623 17.5886 19.0226 18.153 19.0226C18.7169 19.0226 19.177 18.5622 19.177 17.9979C19.177 17.4338 18.7172 16.974 18.153 16.974Z" fill="#F23D4C"/>
</svg>
