<svg width="25" height="24" viewBox="0 0 25 24" fill="none" xmlns="http://www.w3.org/2000/svg">
<path fill-rule="evenodd" clip-rule="evenodd" d="M5.46008 16.3818C5.79846 16.8987 6.19723 17.3772 6.65012 17.8065C7.77231 18.8701 9.17868 19.5858 10.6991 19.8668C12.2195 20.1479 13.7887 19.9824 15.217 19.3903C16.6453 18.7982 17.8715 17.8049 18.747 16.5305C19.6226 15.2562 20.1102 13.7554 20.1507 12.2098C20.1912 10.6641 19.783 9.13989 18.9753 7.82142C18.1677 6.50295 16.9953 5.44677 15.6 4.78065C14.6557 4.32984 13.6367 4.07076 12.6014 4.0127L13.1565 6.08459C13.7017 6.17703 14.2342 6.34484 14.7384 6.58552C15.7848 7.08511 16.6641 7.87725 17.2699 8.8661C17.8756 9.85496 18.1818 10.9981 18.1514 12.1574C18.121 13.3166 17.7553 14.4422 17.0986 15.3979C16.4419 16.3537 15.5224 17.0987 14.4511 17.5428C13.3799 17.9868 12.203 18.111 11.0627 17.9002C9.92237 17.6894 8.86759 17.1526 8.02595 16.3549C7.85021 16.1883 7.68533 16.0119 7.53198 15.8267L5.46008 16.3818Z" fill="#F23D4C"/>
<path d="M6.06571 4.06647C6.84256 3.47037 7.70128 2.99272 8.61374 2.64739C9.0331 2.48868 9.24278 2.40932 9.44026 2.51053C9.63774 2.61174 9.69981 2.84338 9.82395 3.30667L11.8945 11.0341C12.0165 11.4894 12.0775 11.7171 11.974 11.8964C11.8704 12.0758 11.6427 12.1368 11.1874 12.2588L3.45999 14.3294C2.9967 14.4535 2.76506 14.5156 2.57867 14.3952C2.39228 14.2747 2.35616 14.0535 2.28393 13.6109C2.12676 12.6481 2.11106 11.6656 2.23887 10.6947C2.41028 9.39275 2.83646 8.13728 3.49307 7C4.14968 5.86272 5.02386 4.8659 6.06571 4.06647Z" stroke="#F23D4C" stroke-width="2"/>
</svg>
