<svg width="25" height="25" viewBox="0 0 25 25" fill="none" xmlns="http://www.w3.org/2000/svg">
<path fill-rule="evenodd" clip-rule="evenodd" d="M5.45996 16.9059C5.79833 17.4228 6.19711 17.9013 6.64999 18.3305C7.77219 19.3942 9.17855 20.1098 10.699 20.3909C12.2193 20.672 13.7886 20.5064 15.2169 19.9143C16.6452 19.3222 17.8713 18.3289 18.7469 17.0546C19.6225 15.7802 20.1101 14.2795 20.1506 12.7338C20.1911 11.1882 19.7828 9.66394 18.9752 8.34547C18.1676 7.027 16.9952 5.97082 15.5999 5.3047C14.6556 4.85389 13.6366 4.59481 12.6013 4.53674L13.1564 6.60864C13.7015 6.70108 14.2341 6.86889 14.7382 7.10957C15.7847 7.60916 16.664 8.4013 17.2697 9.39015C17.8755 10.379 18.1816 11.5222 18.1513 12.6814C18.1209 13.8406 17.7552 14.9662 17.0985 15.922C16.4418 16.8777 15.5222 17.6227 14.451 18.0668C13.3798 18.5109 12.2028 18.635 11.0625 18.4242C9.92224 18.2134 8.86747 17.6767 8.02582 16.8789C7.85009 16.7124 7.68521 16.5359 7.53186 16.3507L5.45996 16.9059Z" fill="#8A8887"/>
<path d="M6.06571 4.59027C6.84256 3.99417 7.70128 3.51652 8.61374 3.17119C9.0331 3.01248 9.24278 2.93312 9.44026 3.03433C9.63774 3.13554 9.69981 3.36719 9.82395 3.83047L11.8945 11.5579C12.0165 12.0132 12.0775 12.2409 11.974 12.4203C11.8704 12.5996 11.6427 12.6606 11.1874 12.7826L3.45999 14.8532C2.9967 14.9773 2.76506 15.0394 2.57867 14.919C2.39228 14.7985 2.35616 14.5773 2.28393 14.1347C2.12676 13.1719 2.11106 12.1894 2.23887 11.2185C2.41028 9.91656 2.83646 8.66108 3.49307 7.5238C4.14968 6.38652 5.02386 5.38971 6.06571 4.59027Z" stroke="#8A8887" stroke-width="2"/>
</svg>
