<svg width="25" height="24" viewBox="0 0 25 24" fill="none" xmlns="http://www.w3.org/2000/svg">
<path fill-rule="evenodd" clip-rule="evenodd" d="M5.69446 16.3828C6.03283 16.8997 6.4316 17.3782 6.88449 17.8075C8.00668 18.8711 9.41305 19.5867 10.9334 19.8678C12.4538 20.1489 14.0231 19.9834 15.4514 19.3913C16.8797 18.7992 18.1058 17.8059 18.9814 16.5315C19.857 15.2572 20.3445 13.7564 20.3851 12.2108C20.4256 10.6651 20.0173 9.14087 19.2097 7.8224C18.4021 6.50393 17.2297 5.44774 15.8344 4.78163C14.8901 4.33082 13.871 4.07174 12.8358 4.01367L13.3909 6.08557C13.936 6.17801 14.4686 6.34582 14.9727 6.5865C16.0192 7.08609 16.8985 7.87823 17.5042 8.86708C18.1099 9.85593 18.4161 10.9991 18.3858 12.1583C18.3554 13.3176 17.9897 14.4432 17.333 15.3989C16.6763 16.3547 15.7567 17.0997 14.6855 17.5437C13.6143 17.9878 12.4373 18.112 11.297 17.9011C10.1567 17.6903 9.10196 17.1536 8.26032 16.3559C8.08458 16.1893 7.91971 16.0128 7.76635 15.8276L5.69446 16.3828Z" fill="white"/>
<path d="M6.30008 4.06647C7.07693 3.47037 7.93566 2.99272 8.84811 2.64739C9.26747 2.48868 9.47715 2.40932 9.67464 2.51053C9.87212 2.61174 9.93419 2.84338 10.0583 3.30667L12.1289 11.0341C12.2509 11.4894 12.3119 11.7171 12.2083 11.8964C12.1048 12.0758 11.8771 12.1368 11.4218 12.2588L3.69436 14.3294C3.23108 14.4535 2.99944 14.5156 2.81304 14.3952C2.62665 14.2747 2.59054 14.0535 2.5183 13.6109C2.36114 12.6481 2.34544 11.6656 2.47325 10.6947C2.64466 9.39275 3.07083 8.13728 3.72744 7C4.38405 5.86272 5.25823 4.8659 6.30008 4.06647Z" stroke="white" stroke-width="2"/>
</svg>
