<svg width="56" height="56" viewBox="0 0 56 56" fill="none" xmlns="http://www.w3.org/2000/svg">
<path fill-rule="evenodd" clip-rule="evenodd" d="M27.9502 55.7402C43.2227 55.7402 55.6035 43.3594 55.6035 28.0869C55.6035 12.8144 43.2227 0.433594 27.9502 0.433594C12.6777 0.433594 0.296875 12.8144 0.296875 28.0869C0.296875 43.3594 12.6777 55.7402 27.9502 55.7402ZM41.7763 20.1485C42.4834 19.3 42.3687 18.0388 41.5202 17.3317C40.6716 16.6246 39.4105 16.7392 38.7034 17.5878L24.7425 34.3409L17.0733 26.6717C16.2922 25.8907 15.0259 25.8907 14.2449 26.6717C13.4638 27.4528 13.4638 28.7191 14.2449 29.5002L21.914 37.1693L21.9736 37.229C22.2814 37.5371 22.6418 37.8979 22.9917 38.1625C23.4103 38.479 24.0671 38.8591 24.9456 38.8192C25.8241 38.7794 26.4438 38.3414 26.8321 37.9883C27.1565 37.6932 27.4827 37.3012 27.7613 36.9665L27.7614 36.9664L27.8153 36.9016L41.7763 20.1485Z" fill="#17DDA2"/>
</svg>
