<svg width="56" height="56" viewBox="0 0 56 56" fill="none" xmlns="http://www.w3.org/2000/svg">
<path fill-rule="evenodd" clip-rule="evenodd" d="M38.8875 0.977539C39.6168 0.977539 40.3163 1.26727 40.832 1.783L54.582 15.533C55.0977 16.0487 55.3875 16.7482 55.3875 17.4775V36.7275C55.3875 37.3709 55.1619 37.9938 54.7501 38.488L41.0001 54.988C40.4776 55.615 39.7036 55.9775 38.8875 55.9775H16.8875C16.1581 55.9775 15.4586 55.6878 14.9429 55.1721L1.19291 41.4221C0.677183 40.9064 0.387451 40.2069 0.387451 39.4775V17.4775C0.387451 16.7482 0.677183 16.0487 1.19291 15.533L14.9429 1.783C15.4586 1.26727 16.1581 0.977539 16.8875 0.977539H38.8875ZM37.7484 6.47754H18.0265L5.88745 18.6166V38.3385L18.0265 50.4775H37.5994L49.8875 35.7319V18.6166L37.7484 6.47754ZM27.8875 39.4775C29.4062 39.4775 30.6375 40.7088 30.6375 42.2275C30.6375 43.7463 29.4062 44.9775 27.8875 44.9775C26.3687 44.9775 25.1375 43.7463 25.1375 42.2275C25.1375 40.7088 26.3687 39.4775 27.8875 39.4775ZM27.8875 11.9775C29.4062 11.9775 30.6375 13.2088 30.6375 14.7275V31.2275C30.6375 32.7463 29.4062 33.9775 27.8875 33.9775C26.3687 33.9775 25.1375 32.7463 25.1375 31.2275V14.7275C25.1375 13.2088 26.3687 11.9775 27.8875 11.9775Z" fill="url(#paint0_linear_1373_1583)"/>
<defs>
<linearGradient id="paint0_linear_1373_1583" x1="72.1983" y1="69.0206" x2="-2.0938" y2="4.94847" gradientUnits="userSpaceOnUse">
<stop offset="0.267108" stop-color="#C866A0"/>
<stop offset="1" stop-color="#982269"/>
</linearGradient>
</defs>
</svg>
