<svg width="18" height="5" viewBox="0 0 18 5" fill="none" xmlns="http://www.w3.org/2000/svg">
<path fill-rule="evenodd" clip-rule="evenodd" d="M9 0.917969C10.1046 0.917969 11 1.8134 11 2.91797C11 4.02254 10.1046 4.91797 9 4.91797C7.89543 4.91797 7 4.02254 7 2.91797C7 1.8134 7.89543 0.917969 9 0.917969ZM2 0.917969C3.10457 0.917969 4 1.8134 4 2.91797C4 4.02254 3.10457 4.91797 2 4.91797C0.89543 4.91797 0 4.02254 0 2.91797C0 1.8134 0.89543 0.917969 2 0.917969ZM16 0.917969C17.1046 0.917969 18 1.8134 18 2.91797C18 4.02254 17.1046 4.91797 16 4.91797C14.8954 4.91797 14 4.02254 14 2.91797C14 1.8134 14.8954 0.917969 16 0.917969Z" fill="#494746"/>
</svg>
