<svg width="56" height="56" viewBox="0 0 56 56" fill="none" xmlns="http://www.w3.org/2000/svg">
<path fill-rule="evenodd" clip-rule="evenodd" d="M39.1533 0.651367C39.8827 0.651367 40.5821 0.941099 41.0979 1.45682L54.8479 15.2068C55.3636 15.7225 55.6533 16.422 55.6533 17.1514V36.4014C55.6533 37.0447 55.4278 37.6677 55.0159 38.1619L41.2659 54.6619C40.7434 55.2889 39.9695 55.6514 39.1533 55.6514H17.1533C16.424 55.6514 15.7245 55.3616 15.2088 54.8459L1.45878 41.0959C0.943052 40.5802 0.65332 39.8807 0.65332 39.1514V17.1514C0.65332 16.422 0.943052 15.7225 1.45878 15.2068L15.2088 1.45682C15.7245 0.941099 16.424 0.651367 17.1533 0.651367H39.1533ZM38.0142 6.15137H18.2924L6.15332 18.2905V38.0123L18.2924 50.1514H37.8653L50.1533 35.4057V18.2905L38.0142 6.15137ZM28.1533 39.1514C29.6721 39.1514 30.9033 40.3826 30.9033 41.9014C30.9033 43.4202 29.6721 44.6514 28.1533 44.6514C26.6345 44.6514 25.4033 43.4202 25.4033 41.9014C25.4033 40.3826 26.6345 39.1514 28.1533 39.1514ZM28.1533 11.6514C29.6721 11.6514 30.9033 12.8826 30.9033 14.4014V30.9014C30.9033 32.4202 29.6721 33.6514 28.1533 33.6514C26.6345 33.6514 25.4033 32.4202 25.4033 30.9014V14.4014C25.4033 12.8826 26.6345 11.6514 28.1533 11.6514Z" fill="#F23D4C"/>
</svg>
