<svg width="56" height="56" viewBox="0 0 56 56" fill="none" xmlns="http://www.w3.org/2000/svg">
<path fill-rule="evenodd" clip-rule="evenodd" d="M39.0156 0.453125C39.745 0.453125 40.4444 0.742856 40.9602 1.25858L54.7102 15.0086C55.2259 15.5243 55.5156 16.2238 55.5156 16.9531V36.2031C55.5156 36.8465 55.2901 37.4694 54.8782 37.9636L41.1282 54.4636C40.6058 55.0906 39.8318 55.4531 39.0156 55.4531H17.0156C16.2863 55.4531 15.5868 55.1634 15.0711 54.6477L1.32108 40.8977C0.805356 40.3819 0.515625 39.6825 0.515625 38.9531V16.9531C0.515625 16.2238 0.805356 15.5243 1.32108 15.0086L15.0711 1.25858C15.5868 0.742856 16.2863 0.453125 17.0156 0.453125H39.0156ZM37.8765 5.95312H18.1547L6.01562 18.0922V37.814L18.1547 49.9531H37.7276L50.0156 35.2075V18.0922L37.8765 5.95312ZM28.0156 38.9531C29.5344 38.9531 30.7656 40.1843 30.7656 41.7031C30.7656 43.2219 29.5344 44.4531 28.0156 44.4531C26.4968 44.4531 25.2656 43.2219 25.2656 41.7031C25.2656 40.1843 26.4968 38.9531 28.0156 38.9531ZM28.0156 11.4531C29.5344 11.4531 30.7656 12.6843 30.7656 14.2031V30.7031C30.7656 32.2219 29.5344 33.4531 28.0156 33.4531C26.4968 33.4531 25.2656 32.2219 25.2656 30.7031V14.2031C25.2656 12.6843 26.4968 11.4531 28.0156 11.4531Z" fill="url(#paint0_linear_1387_14973)"/>
<defs>
<linearGradient id="paint0_linear_1387_14973" x1="72.3265" y1="68.4962" x2="-1.96563" y2="4.42406" gradientUnits="userSpaceOnUse">
<stop offset="0.267108" stop-color="#C866A0"/>
<stop offset="1" stop-color="#982269"/>
</linearGradient>
</defs>
</svg>
